<svg xmlns="http://www.w3.org/2000/svg" width="65" height="64" viewBox="0 0 65 64" fill="none">
    <g clip-path="url(#clip0_1249_372)">
        <path d="M41.6113 15.1993C44.2667 15.1993 46.4193 13.0467 46.4193 10.3913C46.4193 7.73588 44.2667 5.58325 41.6113 5.58325C38.9559 5.58325 36.8032 7.73588 36.8032 10.3913C36.8032 13.0467 38.9559 15.1993 41.6113 15.1993Z" fill="white"/>
        <path d="M53.7808 0.0122858C52.6048 -0.11345 51.5509 0.740244 51.4267 1.91614L50.3429 12.1626L45.0435 19.0518C38.4317 19.0518 52.7475 19.0518 35.4421 19.0518L26.9709 19.7344L20.5971 17.3158L11.8121 4.79121C11.3748 4.16741 10.5147 4.01661 9.89059 4.45397C9.26679 4.89147 9.11585 5.75185 9.55335 6.37551L17.4886 17.6887C17.343 17.8649 17.2218 18.0664 17.1361 18.2921C16.7165 19.3976 17.2727 20.6339 18.3782 21.0534L25.9005 23.908C26.1435 24.0004 26.4009 24.0474 26.6601 24.0474C26.7161 24.0474 26.772 24.0452 26.828 24.0407L35.4421 23.3632V38.6358L30.1265 60.5596C29.7642 62.0538 30.6818 63.5588 32.176 63.9211C33.6712 64.2835 35.1754 63.3648 35.5375 61.8716C41.3693 37.8176 41.008 39.4632 41.0083 38.964H42.2129V61.2156C42.2129 62.7531 43.4594 63.9995 44.9967 63.9995C46.5341 63.9995 47.7806 62.7531 47.7806 61.2156C47.7806 58.302 47.7301 25.4948 47.7301 22.582L54.1054 14.2941C54.3464 13.9808 54.496 13.6069 54.5376 13.214L55.6848 2.36659C55.8092 1.19069 54.9567 0.136629 53.7808 0.0122858Z" fill="white"/>
    </g>
    <defs>
        <clipPath id="clip0_1249_372">
            <rect width="64" height="64" fill="white" transform="translate(0.5)"/>
        </clipPath>
    </defs>
</svg>