<svg xmlns="http://www.w3.org/2000/svg" width="65" height="64" viewBox="0 0 65 64" fill="none">
    <g clip-path="url(#clip0_1249_381)">
        <path d="M64.5 6.37746C64.5 5.78759 64.0232 5.31079 63.4334 5.31079C58.7784 5.31079 56.9139 5.66172 55.9667 6.24839C55.0195 5.66172 53.155 5.31079 48.5 5.31079C47.9102 5.31079 47.4334 5.78759 47.4334 6.37746C47.4334 6.96732 47.9102 7.44412 48.5 7.44412C53.8728 7.44412 54.7603 7.94972 54.8851 8.07026C54.9011 8.12359 54.9011 8.29426 54.9 8.41906C54.9 8.42119 54.9 8.51079 54.9 8.51079V15.4857L40.9427 19.1679C40.4691 19.2916 40.0723 19.5935 39.8259 20.018C39.5795 20.4425 39.5134 20.9364 39.6403 21.4111L40.6494 25.1785C38.4072 24.1876 36.0072 23.6116 33.5667 23.4804V17.0441H39.9667C40.5566 17.0441 41.0334 16.5673 41.0334 15.9775C41.0334 15.3876 40.5566 14.9108 39.9667 14.9108H25.0334C24.4435 14.9108 23.9667 15.3876 23.9667 15.9775C23.9667 16.5673 24.4435 17.0441 25.0334 17.0441H31.4334V23.4804C28.9918 23.6105 26.5928 24.1876 24.3496 25.1785L25.3587 21.4111C25.4856 20.9375 25.4206 20.4436 25.1731 20.018C24.9278 19.5945 24.5299 19.2916 24.0574 19.1679L10.1 15.4857V8.51079C10.1 8.49586 10.0926 8.48412 10.0915 8.46919C10.0926 8.45532 10.1 8.44359 10.1 8.42866C10.1 8.42652 10.1 8.42226 10.1 8.42012C10.099 8.29426 10.099 8.12359 10.0947 8.10546C10.2398 7.94972 11.1272 7.44412 16.5 7.44412C17.0899 7.44412 17.5667 6.96732 17.5667 6.37746C17.5667 5.78759 17.0899 5.31079 16.5 5.31079C11.8451 5.31079 9.98056 5.66172 9.03336 6.24839C8.08616 5.66172 6.22162 5.31079 1.56669 5.31079C0.976823 5.31079 0.500023 5.78759 0.500023 6.37746C0.500023 6.96732 0.976823 7.44412 1.56669 7.44412C6.93949 7.44412 7.82696 7.94972 7.95176 8.07026C7.96776 8.12359 7.96776 8.29426 7.96669 8.42012C7.96669 8.42226 7.96669 8.51186 7.96669 8.51186V14.9236L5.84936 14.3647C4.89896 14.1108 3.87069 14.7092 3.61469 15.6607L1.80136 22.4297C1.67442 22.9023 1.73949 23.3961 1.98482 23.8196C2.23016 24.2431 2.62802 24.5471 3.10269 24.6729L7.96669 25.9551V55.0036L0.812556 62.1577C0.395489 62.5748 0.395489 63.2489 0.812556 63.666C1.02056 63.874 1.29362 63.9775 1.56669 63.9775C1.83976 63.9775 2.11282 63.8729 2.32082 63.6649L7.96669 58.0201V62.9119C7.96669 63.5017 8.44349 63.9785 9.03336 63.9785C9.62322 63.9785 10.1 63.5017 10.1 62.9119V58.0201L15.7459 63.666C15.9539 63.874 16.227 63.9785 16.5 63.9785C16.7731 63.9785 17.0462 63.874 17.2542 63.666C17.6712 63.2489 17.6712 62.5748 17.2542 62.1577L10.1 55.0025V26.5172L18.7976 28.8116C14.6046 32.6452 12.2334 37.9657 12.2334 43.7108C12.2334 50.7519 15.8472 56.9609 21.3128 60.594L20.7987 62.6516C20.6547 63.2223 21.0024 63.8015 21.5752 63.9444C21.6616 63.9668 21.7491 63.9764 21.8344 63.9764C22.3123 63.9764 22.7464 63.6532 22.868 63.1679L23.2318 61.7119C26.0126 63.1497 29.1592 63.9764 32.5 63.9764C35.8408 63.9764 38.9875 63.1497 41.7683 61.7119L42.132 63.1679C42.2526 63.6532 42.6878 63.9764 43.1656 63.9764C43.251 63.9764 43.3384 63.9657 43.4248 63.9444C43.9966 63.8015 44.3443 63.2223 44.2014 62.6516L43.6872 60.594C49.1528 56.9609 52.7667 50.7529 52.7667 43.7108C52.7667 37.9647 50.3955 32.6441 46.2024 28.8116L54.9 26.5183V55.0036L47.7459 62.1577C47.3288 62.5748 47.3288 63.2489 47.7459 63.666C47.9539 63.874 48.227 63.9785 48.5 63.9785C48.7731 63.9785 49.0462 63.874 49.2542 63.666L54.9 58.0201V62.9119C54.9 63.5017 55.3768 63.9785 55.9667 63.9785C56.5566 63.9785 57.0334 63.5017 57.0334 62.9119V58.0201L62.6792 63.666C62.8872 63.874 63.1603 63.9785 63.4334 63.9785C63.7064 63.9785 63.9795 63.874 64.1875 63.666C64.6046 63.2489 64.6046 62.5748 64.1875 62.1577L57.0334 55.0025V25.9551L61.8995 24.6719C62.372 24.546 62.7688 24.2431 63.0152 23.8185C63.2595 23.3961 63.3256 22.9023 63.1987 22.4287L61.3854 15.6585C61.1304 14.7081 60.1022 14.1097 59.1507 14.3636L57.0334 14.9236V8.51079C57.0334 8.49586 57.0259 8.48412 57.0248 8.46919C57.0259 8.45532 57.0334 8.44359 57.0334 8.42866C57.0334 8.42546 57.0334 8.42226 57.0334 8.41906C57.0323 8.29426 57.0323 8.12359 57.028 8.10439C57.1731 7.94972 58.0606 7.44412 63.4334 7.44412C64.0232 7.44412 64.5 6.96732 64.5 6.37746ZM47.4334 43.7108C47.4334 51.9455 40.7347 58.6441 32.5 58.6441C24.2654 58.6441 17.5667 51.9455 17.5667 43.7108C17.5667 35.4761 24.2654 28.7775 32.5 28.7775C40.7347 28.7775 47.4334 35.4772 47.4334 43.7108Z" fill="white"/>
        <path d="M48.5 4.24417C53.1549 4.24417 55.0195 3.89324 55.9667 3.30657C56.9139 3.89324 58.7784 4.24417 63.4333 4.24417C64.0232 4.24417 64.5 3.76737 64.5 3.17751C64.5 2.58764 64.0232 2.11084 63.4333 2.11084C58.0605 2.11084 57.1731 1.60524 57.0483 1.48471C57.0323 1.43137 57.0323 1.26071 57.0333 1.13591C57.0333 1.13377 57.0333 1.04417 57.0333 1.04417C57.0333 0.455374 56.5576 0.0223069 55.9688 0.0212402H55.9667C55.3789 0.0212402 54.9021 0.538574 54.9 1.12631C54.9 1.12951 54.9 1.13271 54.9 1.13591C54.9011 1.26071 54.9011 1.43137 54.9054 1.45057C54.7603 1.60631 53.8728 2.11084 48.5 2.11084C47.9101 2.11084 47.4333 2.58764 47.4333 3.17751C47.4333 3.76737 47.9101 4.24417 48.5 4.24417Z" fill="white"/>
        <path d="M1.56667 4.24417C6.2216 4.24417 8.08613 3.89324 9.03333 3.30657C9.98053 3.89324 11.8451 4.24417 16.5 4.24417C17.0899 4.24417 17.5667 3.76737 17.5667 3.17751C17.5667 2.58764 17.0899 2.11084 16.5 2.11084C11.1272 2.11084 10.2397 1.60524 10.1149 1.48471C10.0989 1.43244 10.0989 1.26177 10.1 1.13591C10.1 1.13377 10.1 1.04417 10.1 1.04417C10.1 0.455374 9.62427 0.0223069 9.03547 0.0212402C8.4776 0.0628402 7.9688 0.538574 7.96667 1.12737C7.96667 1.13057 7.96667 1.13377 7.96667 1.13697C7.96773 1.26177 7.96773 1.43244 7.972 1.45057C7.82693 1.60631 6.93947 2.11084 1.56667 2.11084C0.9768 2.11084 0.5 2.58764 0.5 3.17751C0.5 3.76737 0.9768 4.24417 1.56667 4.24417Z" fill="white"/>
        <path d="M37.3 42.6443C34.6536 42.6443 32.5 44.7979 32.5 47.4443C32.5 50.0907 34.6536 52.2443 37.3 52.2443C39.9464 52.2443 42.1 50.0907 42.1 47.4443C42.1 44.7979 39.9464 42.6443 37.3 42.6443Z" fill="white"/>
    </g>
    <defs>
        <clipPath id="clip0_1249_381">
            <rect width="64" height="64" fill="white" transform="translate(0.5)"/>
        </clipPath>
    </defs>
</svg>