<?xml version="1.0" encoding="UTF-8" standalone="no"?><!-- Generator: Gravit.io --><svg xmlns="http://www.w3.org/2000/svg" xmlns:xlink="http://www.w3.org/1999/xlink" style="isolation:isolate" viewBox="0 0 20 16" width="20pt" height="16pt"><defs><clipPath id="_clipPath_peu3BTBumN1iNYQUgjzoa2D8KSFPtq4m"><rect width="20" height="16"/></clipPath></defs><g clip-path="url(#_clipPath_peu3BTBumN1iNYQUgjzoa2D8KSFPtq4m)"><path d=" M 2 16 Q 1.175 16 0.588 15.413 Q 0 14.825 0 14 L 0 2 Q 0 1.175 0.588 0.587 Q 1.175 0 2 0 L 18 0 Q 18.825 0 19.413 0.587 Q 20 1.175 20 2 L 20 14 Q 20 14.825 19.413 15.413 Q 18.825 16 18 16 L 2 16 Z  M 10 9 L 2 4 L 2 14 L 18 14 L 18 4 L 10 9 Z  M 10 7 L 18 2 L 2 2 L 10 7 Z  M 2 4 L 2 2 L 2 14 L 2 4 Z " fill="rgb(255,255,255)"/></g></svg>