<svg xmlns="http://www.w3.org/2000/svg" width="65" height="64" viewBox="0 0 65 64" fill="none">
    <g clip-path="url(#clip0_1249_387)">
        <path d="M64.5 19.2923C64.5 18.5119 64.0245 18.2938 63.4345 18.8071L53.7206 27.2724L22.7608 21.8086C22.6115 21.7624 22.4578 21.7318 22.2952 21.7282L0.5 17.8792V22.5908L0.528376 22.5978V40.4407C0.528376 41.6115 1.47773 42.5601 2.64917 42.5601C3.81995 42.5601 4.76975 41.6115 4.76975 40.4407V23.4919L8.65721 24.3115V37.2762C8.65721 38.447 9.6059 39.3968 10.7773 39.3968C11.9492 39.3968 12.8979 38.447 12.8979 37.2762V25.2086L20.4684 26.807V32.9039C20.4684 33.8792 21.2587 34.6706 22.2351 34.6706C23.211 34.6706 24.0013 33.8792 24.0013 32.9039V35.0189C24.0013 35.9953 24.7927 36.7856 25.7691 36.7856C26.745 36.7856 27.535 35.9953 27.535 35.0189V37.1212C27.535 38.0976 28.3264 38.8876 29.3028 38.8876C30.2792 38.8876 31.0695 38.0976 31.0695 37.1212V38.6262C31.0695 39.6026 31.8609 40.394 32.8366 40.394C33.813 40.394 34.6033 39.6026 34.6033 38.6262V40.3524C34.6033 41.3288 35.3946 42.1202 36.3699 42.1202C37.3463 42.1202 38.1377 41.3288 38.1377 40.3524V42.5298C38.1377 43.5039 38.9289 44.2953 39.9055 44.2953C40.7302 44.2953 41.4185 43.726 41.612 42.9601V44.4097C41.612 45.3847 42.4034 46.1761 43.3787 46.1761C44.0818 46.1761 44.6849 45.7619 44.9693 45.166V45.3847C44.9693 46.3614 45.7607 47.1527 46.736 47.1527C47.7123 47.1527 48.5037 46.3614 48.5037 45.3847V32.7256L50.1815 33.0809V51.2216C50.1815 52.3913 51.1302 53.3422 52.3032 53.3422C53.4739 53.3422 54.4226 52.3913 54.4226 51.2216V33.0518L59.9887 28.5882V45.858C59.9887 47.0287 60.9385 47.9785 62.1093 47.9785C63.2814 47.9785 64.2312 47.0287 64.2312 45.858V25.604C64.2312 25.4738 64.2127 25.3442 64.1919 25.2211L64.4949 24.9762V19.2923H64.5Z" fill="white"/>
        <path d="M48.0277 16.6595C48.0787 17.1294 47.9419 17.5899 47.647 17.9581C47.3496 18.3257 46.9262 18.5551 46.4566 18.6049L41.2734 19.1575C40.7553 19.9002 39.906 20.3537 38.9665 20.3537C37.4072 20.3537 36.139 19.0862 36.139 17.5262C36.139 15.9656 37.4072 14.698 38.9665 14.698C39.7787 14.698 40.5283 15.0417 41.056 15.6271L45.0916 15.1967L25.2553 12.9743L23.4864 15.8237C23.6148 16.1483 23.6808 16.4931 23.6808 16.847C23.6808 18.4061 22.4132 19.6752 20.853 19.6752C19.2953 19.6752 18.0262 18.4072 18.0262 16.847C18.0262 15.4338 19.0674 14.2583 20.4238 14.0523L21.3645 12.5375L11.3298 11.413C10.5547 11.326 9.38905 11.5917 8.7277 12.0075L0.501221 17.1728L53.5161 26.2445L62.7022 18.2204C63.2887 17.7061 63.1372 17.2192 62.361 17.133L47.3393 15.4479C47.7107 15.7336 47.9743 16.1622 48.0277 16.6595Z" fill="white"/>
        <path d="M24.6115 10.7639C24.2795 10.5574 23.8449 10.6611 23.6389 10.9913L21.0232 15.2077C20.966 15.2014 20.9092 15.1896 20.8525 15.1896C19.8761 15.1896 19.0847 15.9809 19.0847 16.9569C19.0847 17.9322 19.8761 18.7236 20.8525 18.7236C21.8284 18.7236 22.6187 17.9322 22.6187 16.9569C22.6187 16.5565 22.4815 16.1945 22.259 15.8983L24.8389 11.7373C25.0436 11.4049 24.9417 10.9699 24.6115 10.7639Z" fill="white"/>
        <path d="M46.1949 16.2547L40.5431 16.8564C40.255 16.2739 39.6605 15.8684 38.9641 15.8684C37.9875 15.8684 37.1963 16.6598 37.1963 17.6362C37.1963 18.6115 37.9875 19.4017 38.9641 19.4017C39.7159 19.4017 40.3547 18.9325 40.6092 18.2725L46.3453 17.6599C46.7316 17.6181 47.014 17.27 46.9725 16.8819C46.9307 16.4954 46.5766 16.2132 46.1949 16.2547Z" fill="white"/>
    </g>
    <defs>
        <clipPath id="clip0_1249_387">
            <rect width="64" height="64" fill="white" transform="translate(0.5)"/>
        </clipPath>
    </defs>
</svg>