<svg xmlns="http://www.w3.org/2000/svg" width="65" height="64" viewBox="0 0 65 64" fill="none">
    <g clip-path="url(#clip0_1249_410)">
        <mask id="mask0_1249_410" style="mask-type:luminance" maskUnits="userSpaceOnUse" x="0" y="0" width="65" height="64">
            <path d="M64.5 0H0.5V64H64.5V0Z" fill="white"/>
        </mask>
        <g mask="url(#mask0_1249_410)">
            <path d="M9.162 33.975C11.0747 32.5123 13.2123 31.3593 15.575 30.516C17.9377 29.672 20.4127 29.25 23 29.25C25.5873 29.25 28.0623 29.672 30.425 30.516C32.7877 31.3593 34.9253 32.5123 36.838 33.975C38.15 32.4377 39.1717 30.694 39.903 28.744C40.6343 26.794 41 24.7127 41 22.5C41 17.5127 39.247 13.2657 35.741 9.759C32.2343 6.253 27.9873 4.5 23 4.5C18.0127 4.5 13.7657 6.253 10.259 9.759C6.753 13.2657 5 17.5127 5 22.5C5 24.7127 5.36567 26.794 6.097 28.744C6.82833 30.694 7.85 32.4377 9.162 33.975ZM23 24.75C20.7873 24.75 18.9217 23.9907 17.403 22.472C15.8843 20.9533 15.125 19.0877 15.125 16.875C15.125 14.6623 15.8843 12.7967 17.403 11.278C18.9217 9.75933 20.7873 9 23 9C25.2127 9 27.0783 9.75933 28.597 11.278C30.1157 12.7967 30.875 14.6623 30.875 16.875C30.875 19.0877 30.1157 20.9533 28.597 22.472C27.0783 23.9907 25.2127 24.75 23 24.75ZM23 45C19.8873 45 16.9623 44.4093 14.225 43.228C11.4877 42.0467 9.10633 40.4437 7.081 38.419C5.05633 36.3937 3.45333 34.0123 2.272 31.275C1.09067 28.5377 0.5 25.6127 0.5 22.5C0.5 19.3873 1.09067 16.4623 2.272 13.725C3.45333 10.9877 5.05633 8.60633 7.081 6.581C9.10633 4.55633 11.4877 2.95333 14.225 1.772C16.9623 0.590667 19.8873 0 23 0C26.1127 0 29.0377 0.590667 31.775 1.772C34.5123 2.95333 36.8937 4.55633 38.919 6.581C40.9437 8.60633 42.5467 10.9877 43.728 13.725C44.9093 16.4623 45.5 19.3873 45.5 22.5C45.5 25.6127 44.9093 28.5377 43.728 31.275C42.5467 34.0123 40.9437 36.3937 38.919 38.419C36.8937 40.4437 34.5123 42.0467 31.775 43.228C29.0377 44.4093 26.1127 45 23 45ZM23 40.5C24.9873 40.5 26.8623 40.2093 28.625 39.628C30.3877 39.0467 32.0003 38.2123 33.463 37.125C32.0003 36.0377 30.3877 35.2033 28.625 34.622C26.8623 34.0407 24.9873 33.75 23 33.75C21.0127 33.75 19.1377 34.0407 17.375 34.622C15.6123 35.2033 13.9997 36.0377 12.537 37.125C13.9997 38.2123 15.6123 39.0467 17.375 39.628C19.1377 40.2093 21.0127 40.5 23 40.5ZM23 20.25C23.9753 20.25 24.7817 19.9313 25.419 19.294C26.0563 18.6567 26.375 17.8503 26.375 16.875C26.375 15.9003 26.0563 15.094 25.419 14.456C24.7817 13.8187 23.9753 13.5 23 13.5C22.0247 13.5 21.2183 13.8187 20.581 14.456C19.9437 15.094 19.625 15.9003 19.625 16.875C19.625 17.8503 19.9437 18.6567 20.581 19.294C21.2183 19.9313 22.0247 20.25 23 20.25Z" fill="white"/>
            <path d="M35.741 38.4189L52.019 55.4189" stroke="white" stroke-width="6" stroke-miterlimit="3" stroke-linecap="round"/>
        </g>
    </g>
    <defs>
        <clipPath id="clip0_1249_410">
            <rect width="64" height="64" fill="white" transform="translate(0.5)"/>
        </clipPath>
    </defs>
</svg>