<?xml version="1.0" encoding="UTF-8" standalone="no"?><!-- Generator: Gravit.io --><svg xmlns="http://www.w3.org/2000/svg" xmlns:xlink="http://www.w3.org/1999/xlink" style="isolation:isolate" viewBox="0 0 20 20" width="20pt" height="20pt"><defs><clipPath id="_clipPath_f2b1EBq5mscLztU8zmPhNhruhrT3t58L"><rect width="20" height="20"/></clipPath></defs><g clip-path="url(#_clipPath_f2b1EBq5mscLztU8zmPhNhruhrT3t58L)"><path d=" M 18.833 20 Q 15.361 20 11.972 18.486 Q 8.583 16.972 5.806 14.194 Q 3.028 11.417 1.514 8.028 Q 0 4.639 0 1.167 Q 0 0.667 0.333 0.333 Q 0.667 0 1.167 0 L 5.667 0 Q 6.056 0 6.361 0.264 Q 6.667 0.528 6.722 0.889 L 7.444 4.778 Q 7.5 5.222 7.417 5.528 Q 7.333 5.833 7.111 6.056 L 4.417 8.778 Q 4.972 9.806 5.736 10.764 Q 6.5 11.722 7.417 12.611 Q 8.278 13.472 9.222 14.208 Q 10.167 14.944 11.222 15.556 L 13.833 12.944 Q 14.083 12.694 14.486 12.569 Q 14.889 12.444 15.278 12.5 L 19.111 13.278 Q 19.5 13.389 19.75 13.681 Q 20 13.972 20 14.333 L 20 18.833 Q 20 19.333 19.667 19.667 Q 19.333 20 18.833 20 Z  M 3.361 6.667 L 5.194 4.833 L 4.722 2.222 L 2.25 2.222 Q 2.389 3.361 2.639 4.472 Q 2.889 5.583 3.361 6.667 Z  M 13.306 16.611 Q 14.389 17.083 15.514 17.361 Q 16.639 17.639 17.778 17.722 L 17.778 15.278 L 15.167 14.75 L 13.306 16.611 Z " fill="rgb(255,255,255)"/></g></svg>