<svg xmlns="http://www.w3.org/2000/svg" width="65" height="64" viewBox="0 0 65 64" fill="none">
    <path d="M14.58 2.56006C14.2405 2.56009 13.915 2.69496 13.6749 2.935C13.4349 3.17504 13.3 3.50059 13.3 3.84006V48.6401H15.86V5.12006H56.82V53.7601C56.82 56.5819 54.5218 58.8801 51.7 58.8801C48.8782 58.8801 46.58 56.5819 46.58 53.7601V52.4801C46.58 52.1406 46.4451 51.815 46.2051 51.575C45.965 51.335 45.6395 51.2001 45.3 51.2001H6.9C6.56053 51.2001 6.23498 51.335 5.99494 51.575C5.7549 51.815 5.62003 52.1406 5.62 52.4801V53.7601C5.62 57.9782 9.08181 61.4401 13.3 61.4401H51.6825H51.7C55.9182 61.4401 59.38 57.9782 59.38 53.7601V3.84006C59.38 3.50059 59.2451 3.17504 59.0051 2.935C58.765 2.69496 58.4395 2.56009 58.1 2.56006H14.58ZM46.86 12.8001C46.7488 12.8017 46.6725 12.8201 46.6725 12.8201C46.6725 12.8201 31.8582 15.8734 30.815 16.1026C30.1904 16.2395 29.94 16.6557 29.94 17.2701V33.9151C29.94 35.1055 30.2165 35.8351 27.38 35.8351C24.3362 35.8351 22.26 37.7742 22.26 39.6776C22.26 40.9601 22.7349 43.5201 26.74 43.5201C30.7451 43.5201 32.5 41.1201 32.5 39.6776V23.5126C32.5 22.7727 32.6202 22.5249 33.04 22.4251C33.4598 22.3239 42.701 20.0424 44.3125 19.6776C45.2482 19.4651 45.3 19.769 45.3 20.6126V28.0326V30.0751C45.3 31.2655 45.5765 31.9951 42.74 31.9951C39.6962 31.9951 37.62 33.9342 37.62 35.8376C37.62 37.1188 38.0949 39.6776 42.1 39.6776C46.1051 39.6776 47.86 37.2801 47.86 35.8376V27.2601V19.6726V14.0701C47.86 12.9277 47.1937 12.7951 46.86 12.8001ZM8.18 53.7601H44.02C44.02 55.7384 44.8286 57.5136 46.0725 58.8801H13.3175H13.3C10.4782 58.8801 8.18 56.5819 8.18 53.7601Z" fill="white"/>
</svg>