<svg xmlns="http://www.w3.org/2000/svg" width="200" height="67" viewBox="0 0 200 67" fill="none">
    <path d="M25.2101 12.8001L34.3901 33.6701H16.0301L25.2101 12.8001ZM28.5501 0.110107H27.0501L7.35009 45.1901C5.01009 50.5301 3.68009 52.0301 0.340088 52.3701V53.7101H15.2001V52.3701H15.0301C11.5201 52.3701 9.69009 51.2001 9.69009 48.8601C9.69009 48.1901 9.86009 47.5201 10.1901 46.8601L14.7001 36.3401H35.4001L39.2401 45.1901C39.9101 47.0301 40.2401 47.8601 40.2401 48.7001C40.2401 50.8701 38.2401 52.3701 35.0601 52.3701H34.8901V53.7101H55.9301V52.3701H55.6001C51.9301 52.3701 50.5901 51.2001 48.7601 46.8601L28.5501 0.110107Z" fill="white"/>
    <path d="M69.7799 25.8201C73.1199 20.3101 75.7899 18.3101 79.1299 18.3101C81.6299 18.3101 83.7999 20.3101 83.7999 22.6501C83.7999 24.4901 82.1299 25.9901 80.2899 25.9901C79.6199 25.9901 78.7899 25.6601 78.1199 25.1601L76.6199 23.8201C76.2899 23.4901 75.7899 23.3201 75.1199 23.3201C73.4499 23.3201 71.4499 25.1601 69.7799 28.5001V45.5301C69.7799 51.0401 70.9499 52.5401 75.2899 52.5401H76.4599V53.8801H58.0999V52.5401H58.2699C62.6099 52.5401 63.7799 51.0401 63.7799 45.5301V29.6701C63.7799 24.8301 63.1099 23.4901 60.4399 23.4901C59.7699 23.4901 59.4399 23.4901 58.4399 23.9901L57.9399 22.6501L68.2899 18.3101H69.7899C69.7799 18.3101 69.7799 25.8201 69.7799 25.8201Z" fill="white"/>
    <path d="M96.33 18.9802H104.34V21.1502H96.33V44.0202V45.1902C96.33 48.2002 98.17 50.3702 100.67 50.3702C102.34 50.3702 103.68 49.7002 105.18 47.5302H106.68C104.01 52.5402 101 54.7102 97.16 54.7102C92.49 54.7102 90.15 51.5402 90.15 44.8602V21.1502H84.97V19.8102C89.98 17.6402 93.48 13.4702 95.15 7.96021H96.32C96.33 7.96021 96.33 18.9802 96.33 18.9802Z" fill="white"/>
    <path d="M148.25 13.8H146.91C146.24 8.79004 143.4 5.62004 139.73 5.45004H137.89H137.06H122.2V25.15H135.39C140.06 25.15 142.07 22.98 142.07 17.97V17.64H143.41V35.67H142.07V35.5C142.07 29.99 140.07 27.99 135.06 27.99H122.2V46.52C122.2 49.53 123.03 50.69 125.71 50.69H126.71H137.23H138.4C141.91 50.69 144.74 49.35 147.08 47.02C148.58 45.35 148.58 44.85 150.59 41.34L150.92 40.84H152.42L148.25 53.69H107.01V52.35H107.51C112.69 52.35 114.52 50.68 114.52 45.84V43.67V12.3V10.13C114.52 5.29004 112.85 3.79004 107.51 3.79004H107.01V2.29004H147.74L148.25 13.8Z" fill="white"/>
    <path d="M199.17 2.28002L164.28 50.36H185.98C191.32 50.36 193.49 49.69 195.33 47.52C196.67 45.85 197.67 43.51 198.67 39.84H200L197.33 53.53H153.09V52.19L187.15 5.28002H170.29C164.45 5.28002 162.28 5.95002 160.77 8.45002C159.94 9.79002 159.43 11.29 159.1 14.29V14.96H157.76L158.76 2.27002C158.76 2.28002 199.17 2.28002 199.17 2.28002Z" fill="white"/>
    <path d="M200 63.3801H0V66.8901H200V63.3801Z" fill="white"/>
</svg>