<?xml version="1.0" encoding="UTF-8" standalone="no"?><!-- Generator: Gravit.io --><svg xmlns="http://www.w3.org/2000/svg" xmlns:xlink="http://www.w3.org/1999/xlink" style="isolation:isolate" viewBox="0 0 746 829" width="746pt" height="829pt"><defs><clipPath id="_clipPath_B4GAqsg5kb7mtAfWhsJTrHFAHiNWxLAO"><rect width="746" height="829"/></clipPath></defs><g clip-path="url(#_clipPath_B4GAqsg5kb7mtAfWhsJTrHFAHiNWxLAO)"><g><g><path d=" M 279.818 281.132 C 277.618 282.732 269.418 287.932 261.618 292.732 C 253.718 297.432 247.318 301.832 247.318 302.532 C 247.318 304.132 253.018 308.932 254.918 308.932 C 255.618 308.932 258.018 308.232 260.218 307.332 C 266.018 305.032 268.518 305.732 269.618 309.932 C 270.818 314.632 272.718 316.632 279.818 320.232 C 288.218 324.432 290.518 325.032 301.318 325.832 L 310.818 326.432 L 311.118 329.432 C 311.318 331.032 311.018 334.832 310.318 337.832 C 308.718 344.832 309.718 345.732 315.818 343.032 C 318.418 341.832 320.818 340.932 321.118 340.932 C 322.318 340.932 320.218 364.032 318.318 371.932 C 317.118 376.532 313.518 389.032 310.118 399.732 C 305.518 414.232 304.318 419.332 305.218 420.232 C 306.818 421.832 307.418 420.832 313.118 407.432 C 322.418 385.632 329.418 364.932 331.318 353.932 C 335.318 331.132 335.418 329.832 333.718 317.732 C 331.118 298.632 328.718 296.132 308.318 291.232 C 306.018 290.632 304.418 289.432 303.518 287.632 C 302.818 286.132 301.818 284.932 301.318 284.932 C 300.918 284.932 297.718 287.232 294.318 290.032 C 291.018 292.832 288.018 294.932 287.818 294.732 C 287.518 294.432 289.518 292.332 292.318 290.032 C 295.018 287.732 297.318 285.432 297.318 284.932 C 297.318 283.932 289.318 279.632 285.818 278.632 C 284.518 278.332 282.418 279.132 279.818 281.132 Z " fill="rgb(0,0,0)"/><path d=" M 477.118 281.032 C 473.918 282.632 471.318 284.332 471.318 284.832 C 471.318 285.332 473.718 287.832 476.618 290.332 C 479.418 292.832 481.418 294.932 480.818 294.932 C 480.318 294.932 477.218 292.632 474.018 289.932 C 470.818 287.132 467.718 284.932 467.318 284.932 C 466.818 284.932 465.818 286.132 465.118 287.632 C 464.118 289.632 462.718 290.632 459.818 291.332 C 445.218 294.632 440.318 297.332 437.618 303.632 C 436.918 305.532 435.618 311.732 434.818 317.532 C 433.418 327.032 433.418 329.432 434.918 340.832 C 435.718 347.732 437.518 357.432 438.818 362.432 C 442.918 378.032 460.018 420.932 462.218 420.932 C 464.618 420.932 464.018 417.832 458.318 399.732 C 454.918 389.132 451.318 376.832 450.218 372.432 C 448.418 365.032 446.318 340.932 447.518 340.932 C 447.818 340.932 450.218 341.832 452.818 343.032 C 455.418 344.132 457.918 344.732 458.318 344.232 C 458.818 343.832 458.718 341.332 458.218 338.732 C 457.618 336.232 457.318 332.332 457.518 330.232 L 457.818 326.432 L 466.818 325.832 C 476.618 325.232 481.018 324.032 489.318 319.932 C 496.118 316.532 497.918 314.532 498.818 309.632 C 499.618 305.332 501.218 305.032 508.518 307.532 C 512.618 308.932 513.518 308.932 516.018 307.532 C 520.318 305.332 521.818 303.232 520.418 301.532 C 519.718 300.732 514.918 297.532 509.518 294.332 C 504.218 291.232 496.518 286.432 492.518 283.732 C 488.618 281.032 484.718 278.632 484.018 278.432 C 483.418 278.232 480.218 279.332 477.118 281.032 Z " fill="rgb(0,0,0)"/><path d=" M 317.318 442.032 C 317.318 448.032 322.518 458.332 327.318 461.832 C 329.518 463.432 336.518 467.032 343.018 469.832 C 361.718 478.132 374.618 484.532 377.018 486.532 C 379.018 488.332 379.218 489.432 379.518 502.132 C 379.718 518.032 380.418 516.532 367.318 527.232 C 357.218 535.432 347.218 540.032 338.518 540.632 C 332.818 541.032 330.418 540.632 322.918 538.032 C 318.018 536.332 313.618 534.932 313.118 534.932 C 311.418 534.932 309.318 541.932 309.318 547.632 C 309.318 554.832 312.518 562.132 317.718 566.732 C 319.718 568.432 321.718 569.932 322.118 569.932 C 322.618 569.932 324.518 568.332 326.418 566.332 C 331.118 561.432 344.518 551.332 350.218 548.532 C 360.718 543.132 368.818 541.432 383.818 541.432 C 398.818 541.432 406.918 543.132 417.418 548.532 C 423.118 551.332 436.518 561.432 441.218 566.332 C 443.118 568.332 445.018 569.932 445.518 569.932 C 445.918 569.932 447.918 568.432 449.918 566.732 C 455.118 562.132 458.318 554.832 458.318 547.632 C 458.318 541.932 456.218 534.932 454.518 534.932 C 454.018 534.932 449.618 536.332 444.718 538.032 C 437.218 540.632 434.818 541.032 429.118 540.632 C 420.418 540.032 410.418 535.432 400.318 527.232 C 387.318 516.632 388.018 518.132 388.218 502.232 C 388.418 489.332 388.518 488.332 390.618 486.532 C 393.018 484.532 406.018 478.132 424.618 469.832 C 440.318 462.932 443.418 460.532 447.218 452.632 C 450.518 445.832 451.418 437.932 449.018 437.932 C 448.318 437.932 445.318 439.832 442.318 442.032 C 435.018 447.532 433.718 447.932 423.218 447.932 C 415.818 447.932 413.218 448.332 408.918 450.332 C 399.818 454.532 393.418 455.932 383.818 455.932 C 374.218 455.932 367.818 454.532 358.718 450.332 C 354.418 448.332 351.818 447.932 344.418 447.932 C 333.918 447.932 332.618 447.532 325.318 442.032 C 318.418 436.832 317.318 436.832 317.318 442.032 Z " fill="rgb(0,0,0)"/><path d=" M 279.318 453.232 C 279.318 458.732 291.418 470.932 302.018 476.132 C 307.518 478.832 310.018 479.432 317.218 479.732 C 327.118 480.132 332.618 478.832 330.218 476.432 C 329.418 475.632 324.318 473.832 318.918 472.432 C 307.718 469.632 299.618 465.232 289.518 456.432 C 282.718 450.432 279.318 449.432 279.318 453.232 Z " fill="rgb(0,0,0)"/><path d=" M 270.318 458.032 C 270.318 462.032 278.318 476.632 283.918 482.832 C 287.918 487.232 291.418 489.932 296.718 492.532 C 303.218 495.732 304.918 496.132 311.918 496.132 C 316.318 496.232 324.018 495.632 329.118 494.932 C 335.218 494.032 342.918 493.832 351.418 494.232 C 363.418 494.832 364.318 494.732 364.318 493.032 C 364.318 490.832 362.118 488.832 356.818 486.132 C 350.218 482.832 342.318 481.832 333.518 483.032 C 329.318 483.632 321.518 484.232 316.318 484.232 C 307.918 484.332 306.118 484.032 300.818 481.632 C 294.118 478.532 289.018 473.932 280.118 463.132 C 274.018 455.732 270.318 453.832 270.318 458.032 Z " fill="rgb(0,0,0)"/><path d=" M 421.118 506.532 C 419.118 508.532 420.618 510.732 425.618 513.132 C 439.218 519.832 447.118 520.332 458.218 515.432 C 465.318 512.232 468.218 509.432 466.518 507.732 C 465.618 506.832 463.918 506.832 459.518 507.732 C 452.818 509.132 439.918 509.232 433.318 507.932 C 430.818 507.532 427.218 506.832 425.318 506.432 C 423.418 506.032 421.518 506.132 421.118 506.532 Z " fill="rgb(0,0,0)"/></g><g><path d=" M 250.172 0.71 C 250.172 1.098 256.29 7.507 263.864 14.984 C 296.005 46.932 309.794 68.392 316.98 97.717 C 318.922 105.68 320.864 111.506 321.447 111.312 C 322.806 110.826 325.428 102.864 327.467 93.153 C 328.73 86.647 329.021 82.083 328.535 71.79 C 327.856 57.128 326.399 50.33 321.932 41.397 C 316.397 30.424 297.462 13.722 283.673 7.604 C 273.866 3.234 250.172 -1.621 250.172 0.71 Z " fill="rgb(0,0,0)"/><path d=" M 477.203 2.846 C 471.473 4.4 464.87 6.536 462.443 7.604 C 454.189 11.197 443.896 18.674 435.545 27.025 C 422.241 40.328 418.454 49.65 417.483 71.79 C 416.998 82.083 417.289 86.647 418.551 93.153 C 421.562 107.913 425.057 115.293 426.32 109.467 C 431.369 86.259 434.379 77.908 442.536 63.439 C 450.402 49.65 460.112 37.61 478.562 18.771 C 488.078 9.158 495.847 0.904 495.847 0.613 C 495.847 -0.844 487.107 0.321 477.203 2.846 Z " fill="rgb(0,0,0)"/><path d=" M 372.038 30.909 C 371.747 31.589 370.388 37.901 369.028 44.989 C 363.299 76.646 349.122 105.291 325.331 132.869 C 306.104 155.3 286.004 169.38 252.6 184.043 C 229.586 194.142 209.291 201.328 152.097 219.875 C 130.442 226.866 100.922 242.015 79.754 257.066 C 59.168 271.729 33.823 301.54 22.171 324.845 C 13.14 342.809 5.469 366.308 1.585 387.477 C -0.649 399.907 -0.552 404.859 2.07 404.859 C 2.847 404.859 4.206 403.402 5.08 401.654 C 13.14 385.729 42.368 352.811 61.789 337.954 C 91.115 315.328 118.498 300.569 172.488 278.04 C 188.802 271.34 204.63 264.446 207.835 262.892 C 210.942 261.338 213.661 260.173 213.758 260.367 C 213.952 260.562 213.758 262.406 213.272 264.543 C 212.496 268.136 213.37 271.826 215.117 271.826 C 215.797 271.826 227.547 267.941 231.043 266.485 C 233.761 265.32 232.985 263.863 225.896 256.774 C 222.206 253.084 219.099 249.783 219.099 249.492 C 219.099 249.2 225.41 249.103 233.179 249.297 C 249.687 249.686 249.104 250.268 244.346 238.325 C 242.792 234.246 241.433 230.556 241.433 230.071 C 241.433 229.488 246.094 229.1 252.891 229.1 C 259.106 229.1 264.835 228.711 265.612 228.226 C 266.874 227.449 266.777 225.895 265.418 216.864 C 264.544 211.038 264.058 206.183 264.252 205.989 C 264.446 205.795 268.136 206.96 272.506 208.708 C 283.77 212.98 284.936 212.689 288.237 204.629 C 292.121 194.822 302.123 180.547 305.133 180.547 C 305.716 180.547 309.6 183.169 313.776 186.374 C 317.951 189.578 322.127 192.2 323.195 192.2 C 324.554 192.2 326.302 189.481 330.38 181.227 C 333.294 175.304 336.013 170.254 336.401 170.157 C 336.789 169.963 338.829 172.585 340.965 175.983 C 343.101 179.285 347.956 185.208 351.646 189.19 C 358.249 196.084 370.679 205.795 373.009 205.795 C 375.34 205.795 387.769 196.084 394.372 189.19 C 398.159 185.208 402.918 179.285 405.054 175.983 C 407.19 172.585 409.229 169.963 409.618 170.157 C 410.006 170.254 412.725 175.304 415.638 181.227 C 419.62 189.287 421.465 192.2 422.824 192.2 C 423.795 192.2 427.971 189.578 432.146 186.374 C 436.322 183.169 440.303 180.547 440.885 180.547 C 443.896 180.547 453.897 194.822 457.782 204.629 C 461.083 212.689 462.248 212.98 473.513 208.708 C 477.882 206.96 481.572 205.795 481.864 205.989 C 482.058 206.28 481.572 210.164 480.795 214.631 C 478.95 225.118 478.95 227.74 480.892 228.517 C 481.766 228.808 487.398 229.1 493.516 229.1 C 500.022 229.1 504.586 229.488 504.586 230.071 C 504.586 230.556 503.324 234.246 501.673 238.325 C 496.915 250.268 496.332 249.686 512.84 249.297 C 520.608 249.103 526.92 249.2 526.92 249.492 C 526.92 249.783 523.91 253.084 520.123 256.774 C 513.034 263.863 512.257 265.32 515.073 266.485 C 518.472 267.941 530.222 271.826 530.901 271.826 C 532.649 271.826 533.523 268.136 532.746 264.543 C 532.261 262.406 532.067 260.562 532.261 260.367 C 532.358 260.173 535.077 261.338 538.184 262.892 C 541.389 264.446 557.217 271.34 573.53 278.04 C 626.841 300.277 654.127 314.94 682.773 336.789 C 703.068 352.325 732.587 385.244 740.938 401.654 C 741.812 403.402 743.172 404.859 743.949 404.859 C 746.473 404.859 746.668 399.907 744.531 387.963 C 740.647 366.794 732.782 342.712 723.848 324.748 C 712.195 301.637 686.851 271.729 666.265 257.066 C 645.193 242.112 615.479 226.769 593.825 219.778 C 536.533 201.231 516.433 194.142 493.419 184.043 C 460.015 169.38 439.914 155.3 420.688 132.869 C 396.897 105.194 382.72 76.646 376.894 44.795 C 374.563 31.977 373.495 28.676 372.038 30.909 Z " fill="rgb(0,0,0)"/><path d=" M 209.874 46.155 C 201.911 48.097 190.162 54.02 180.063 61.303 C 167.73 70.237 167.536 72.373 179.286 70.237 C 183.267 69.557 189.385 68.974 192.88 68.877 C 204.824 68.877 224.439 72.664 238.228 77.714 C 246.191 80.627 271.341 92.862 281.731 98.785 C 286.489 101.601 290.762 103.835 291.15 103.835 C 295.714 103.835 277.556 75.577 266.097 64.993 C 247.356 47.514 229.198 41.494 209.874 46.155 Z " fill="rgb(0,0,0)"/><path d=" M 511.383 45.96 C 501.09 48.874 490.603 55.088 480.407 64.605 C 468.366 75.772 450.013 103.835 454.868 103.835 C 455.257 103.835 459.044 101.796 463.317 99.368 C 494.778 81.307 518.86 72.276 542.748 69.654 C 552.653 68.586 565.568 69.266 573.336 71.402 C 574.987 71.887 575.472 71.596 575.472 70.14 C 575.472 67.615 560.421 56.642 549.74 51.398 C 536.728 44.989 522.259 42.95 511.383 45.96 Z " fill="rgb(0,0,0)"/><path d=" M 181.713 80.044 C 168.993 82.86 155.01 89.949 143.357 99.465 C 135.977 105.486 116.265 125.586 110.244 133.16 C 103.738 141.414 106.166 141.706 123.062 134.811 C 136.269 129.47 156.758 123.061 166.662 121.217 C 170.158 120.537 178.897 120.051 186.083 120.051 C 197.736 119.954 200.552 120.343 210.942 123.061 C 232.305 128.596 259.106 129.179 275.419 124.518 C 282.799 122.382 297.753 116.653 300.472 114.905 C 303.871 112.671 301.638 110.632 295.908 110.632 C 290.859 110.632 279.595 108.593 271.535 106.262 C 259.397 102.67 253.668 100.242 235.412 91.211 C 222.983 84.997 213.952 81.112 209.485 80.141 C 201.426 78.296 189.773 78.296 181.713 80.044 Z " fill="rgb(0,0,0)"/><path d=" M 536.145 80.044 C 532.941 80.821 521.579 85.773 510.898 91.114 C 492.351 100.242 486.525 102.67 474.484 106.262 C 466.424 108.593 455.16 110.632 450.11 110.632 C 444.381 110.632 442.148 112.671 445.546 114.905 C 448.265 116.653 463.219 122.382 470.599 124.518 C 486.913 129.179 513.714 128.596 535.077 123.061 C 545.176 120.44 548.574 120.051 558.965 119.954 C 565.665 119.954 574.404 120.537 578.385 121.119 C 588.484 122.77 608.585 128.985 622.956 134.811 C 644.708 143.745 644.417 141.511 620.82 116.847 C 601.885 97.135 588.97 87.91 572.171 82.278 C 561.392 78.685 545.758 77.714 536.145 80.044 Z " fill="rgb(0,0,0)"/><path d=" M 306.396 121.799 C 297.462 128.694 290.762 132.092 280.275 135.297 C 260.465 141.22 238.617 142.58 189.773 140.832 C 145.493 139.181 128.597 140.929 106.943 149.377 C 96.067 153.552 87.91 159.087 78.2 168.895 C 64.702 182.489 55.089 198.803 48.292 218.904 C 44.505 230.168 41.3 244.928 42.271 245.899 C 43.339 246.967 46.835 245.122 57.225 238.422 C 73.636 227.74 102.379 213.951 122.48 207.057 C 144.717 199.483 173.265 191.909 194.823 187.927 C 220.361 183.169 239.491 177.246 256.484 168.992 C 271.147 161.806 287.169 151.222 295.908 142.968 C 303.385 135.879 315.426 121.022 315.621 118.692 C 315.815 115.682 313.387 116.458 306.396 121.799 Z " fill="rgb(0,0,0)"/><path d=" M 430.301 117.429 C 429.621 118.498 431.563 121.605 439.138 131.024 C 446.42 140.249 455.645 148.503 467.395 156.271 C 491.186 172.099 515.656 181.324 551.196 187.927 C 573.627 192.103 600.525 199.289 623.539 207.057 C 644.417 214.243 670.441 226.769 691.124 239.781 C 697.144 243.471 702.388 246.578 702.776 246.578 C 704.524 246.578 704.524 244.345 702.582 236.188 C 695.688 207.057 684.909 186.179 667.819 168.895 C 658.108 159.087 649.951 153.552 639.076 149.377 C 617.421 140.929 600.525 139.181 556.246 140.832 C 487.204 143.356 462.637 139.375 439.72 121.896 C 432.34 116.264 431.272 115.779 430.301 117.429 Z " fill="rgb(0,0,0)"/><path d=" M 191.909 283.381 C 190.55 284.352 178.121 291.052 164.235 298.238 C 126.267 317.95 95.29 337.371 75.093 354.17 C 56.934 369.221 37.902 395.343 30.813 415.152 C 17.218 452.634 15.373 497.594 25.375 547.505 C 27.317 556.73 29.065 564.693 29.356 565.178 C 30.425 566.926 33.629 566.052 34.017 563.819 C 34.309 562.654 35.183 558.187 36.057 553.914 C 41.883 524.2 62.372 485.359 88.105 455.353 C 107.526 432.534 124.033 417.58 165.303 384.758 C 182.879 370.872 200.455 356.112 204.242 352.131 C 212.204 343.877 218.128 333.099 218.904 325.233 C 219.293 320.961 219.002 320.184 215.409 315.62 C 210.651 309.696 204.436 298.432 202.105 291.732 C 198.707 281.827 198.513 281.536 196.376 281.536 C 195.308 281.536 193.269 282.41 191.909 283.381 Z " fill="rgb(0,0,0)"/><path d=" M 546.535 284.158 C 546.05 285.712 544.787 289.013 543.913 291.732 C 541.583 298.432 535.368 309.696 530.61 315.62 C 527.017 320.281 526.726 320.961 527.114 325.427 C 527.406 328.243 529.153 333.293 531.581 338.245 C 536.922 348.927 544.884 356.501 580.328 384.467 C 615.771 412.433 624.413 419.91 641.212 437.195 C 679.083 476.328 702 515.558 710.448 555.565 C 711.419 560.226 712.487 564.499 712.875 564.984 C 713.652 566.247 715.983 566.344 716.662 565.178 C 716.954 564.693 718.701 556.73 720.644 547.505 C 730.645 497.399 728.8 452.731 715.206 415.152 C 706.369 390.779 683.841 362.715 658.497 344.46 C 632.764 326.01 613.052 314.26 577.9 296.102 C 566.15 290.081 555.372 284.352 553.915 283.381 C 550.225 280.759 547.7 281.051 546.535 284.158 Z " fill="rgb(0,0,0)"/><path d=" M 180.937 395.051 C 119.858 445.449 106.457 459.626 92.377 488.854 C 80.433 513.616 75.481 538.475 76.743 567.994 C 78.297 607.03 88.105 642.765 108.594 684.034 C 115.585 698.017 132.19 726.76 133.841 727.829 C 136.463 729.479 137.045 725.595 137.725 700.251 C 138.308 673.838 139.182 666.07 143.843 642.668 C 154.427 589.843 178.412 538.96 210.942 500.41 C 214.049 496.72 221.623 487.98 227.838 481.086 C 245.608 461.082 250.463 454.673 250.366 451.469 C 250.269 448.459 237.354 421.27 235.121 419.425 C 231.237 416.22 222.594 421.27 203.465 437.971 C 156.175 478.95 126.655 533.619 115.1 601.496 L 113.255 612.177 L 113.837 594.31 C 114.42 571.782 116.848 557.313 122.965 538.863 C 138.599 491.379 165.691 453.8 212.204 414.958 C 217.254 410.685 221.818 406.607 222.303 405.636 C 223.08 404.47 222.497 402.237 219.876 396.411 C 217.933 392.235 215.409 386.021 214.243 382.525 C 212.107 376.601 209.874 372.814 208.514 372.814 C 208.223 372.911 195.794 382.913 180.937 395.051 Z " fill="rgb(0,0,0)"/><path d=" M 535.465 374.465 C 534.688 375.436 533.038 379.029 531.775 382.525 C 530.61 386.021 528.085 392.235 526.143 396.411 C 523.521 402.237 522.939 404.47 523.716 405.636 C 524.201 406.607 528.765 410.685 533.814 414.861 C 577.026 450.886 604.215 487.106 619.946 529.638 C 628.588 553.04 631.502 567.994 632.181 594.31 L 632.764 612.177 L 631.307 603.923 C 626.646 576.928 622.471 561.003 614.703 541.582 C 598.001 499.342 574.793 465.84 542.554 437.971 C 523.424 421.27 514.782 416.22 510.898 419.425 C 508.47 421.464 495.847 448.265 495.847 451.566 C 495.847 455.45 497.4 457.295 528.862 493.224 C 570.52 540.708 595.573 596.058 606.06 664.128 C 607.031 670.246 607.905 684.714 608.391 700.251 C 609.07 727.052 609.653 730.45 612.76 727.246 C 615.576 724.333 630.336 698.115 638.008 682.578 C 658.497 641.017 667.819 606.642 669.372 567.509 C 671.023 523.909 657.429 484.29 630.045 452.828 C 621.694 443.215 599.166 423.115 569.452 398.741 C 557.022 388.545 544.884 378.544 542.554 376.504 C 537.699 372.232 537.407 372.232 535.465 374.465 Z " fill="rgb(0,0,0)"/><path d=" M 254.542 471.667 C 253.279 472.541 238.034 490.214 229.295 500.992 C 202.008 534.688 181.228 584.017 174.042 632.763 C 172.391 643.639 170.546 672.285 170.546 686.656 C 170.546 713.943 177.635 749.192 187.637 771.914 C 193.56 785.412 203.076 799.103 206.572 799.103 C 208.903 799.103 208.903 798.812 206.087 786.285 C 196.959 745.89 202.105 694.23 220.167 646.067 C 233.082 611.692 249.201 581.589 276.099 541.873 C 282.799 532.066 287.849 523.715 287.363 523.326 C 286.975 522.938 283.091 520.025 278.721 516.82 C 264.446 506.042 261.63 501.284 259.009 484.387 C 257.261 472.735 256.387 470.307 254.542 471.667 Z " fill="rgb(0,0,0)"/><path d=" M 489.049 472.832 C 488.564 473.803 488.078 475.745 488.078 477.008 C 488.078 482.057 485.068 496.428 483.223 500.021 C 480.31 505.653 476.037 510.217 467.298 516.82 C 462.928 520.025 459.044 522.938 458.656 523.326 C 458.267 523.715 463.317 532.066 469.92 541.873 C 497.206 582.172 513.034 611.789 525.852 646.067 C 543.913 694.23 549.06 745.89 539.932 786.285 C 537.116 798.812 537.116 799.103 539.447 799.103 C 543.331 799.103 553.915 783.178 559.838 768.418 C 567.607 749.094 572.365 728.023 574.598 703.164 C 576.055 687.336 574.695 649.854 572.074 632.763 C 565.276 588.095 547.895 544.01 524.298 510.994 C 517.695 501.672 493.031 472.249 491.283 471.473 C 490.603 471.181 489.632 471.764 489.049 472.832 Z " fill="rgb(0,0,0)"/><path d=" M 277.167 570.616 C 252.503 611.886 237.451 647.62 232.208 677.237 C 230.071 689.181 229.198 722.973 230.654 735.985 C 232.014 747.735 235.704 765.02 239.199 776.284 C 245.22 795.413 266.486 829.788 271.826 829.011 C 273.671 828.72 273.769 828.235 273.38 821.923 C 272.506 806.677 273.089 726.178 274.254 712.68 C 278.527 664.031 283.382 637.036 295.617 594.795 L 302.026 572.558 L 298.627 566.247 C 294.646 558.672 290.276 552.458 289.014 552.458 C 288.528 552.458 283.188 560.615 277.167 570.616 Z " fill="rgb(0,0,0)"/><path d=" M 453.8 555.565 C 452.538 557.313 449.819 561.78 447.78 565.47 L 444.09 572.17 L 445.546 577.608 C 446.42 580.618 449.334 590.814 452.052 600.33 C 468.172 655.874 474.192 708.505 473.318 786.674 C 473.027 808.231 472.639 826.487 472.444 827.264 C 472.25 828.138 472.833 828.817 474.095 829.011 C 479.436 829.788 500.702 795.51 506.819 776.284 C 510.509 764.631 514.102 747.444 515.365 735.5 C 516.821 721.905 515.947 689.181 513.811 677.237 C 510.412 657.719 501.09 631.404 489.438 607.807 C 480.892 590.62 458.558 552.458 457.005 552.458 C 456.519 552.458 455.063 553.914 453.8 555.565 Z " fill="rgb(0,0,0)"/><path d=" M 320.282 583.823 C 318.34 586.153 311.542 608.002 309.017 620.042 C 305.619 636.259 302.803 658.01 301.443 679.082 C 300.472 694.716 300.472 698.794 301.929 711.806 C 304.065 730.936 308.046 746.473 313.97 758.319 C 317.854 766.088 320.087 769.098 327.856 776.866 C 342.324 791.529 349.51 793.86 345.237 782.498 C 342.519 775.41 335.43 747.541 331.837 729.576 C 324.943 694.716 322.806 668.401 323.098 617.226 C 323.195 585.085 322.806 580.715 320.282 583.823 Z " fill="rgb(0,0,0)"/><path d=" M 423.504 583.531 C 423.115 584.211 422.824 599.359 422.921 617.324 C 423.212 668.401 421.076 694.716 414.182 729.576 C 410.589 747.541 403.5 775.41 400.781 782.498 C 396.509 793.86 403.694 791.529 418.163 776.866 C 425.931 769.098 428.165 766.088 432.049 758.319 C 437.972 746.473 441.954 730.936 444.09 711.806 C 445.546 698.794 445.546 694.716 444.575 679.082 C 442.342 645.484 437.681 617.809 430.592 596.446 C 426.708 584.696 424.863 581.298 423.504 583.531 Z " fill="rgb(0,0,0)"/><path d=" M 350.481 591.882 C 350.19 592.756 350.19 602.272 350.481 613.051 C 351.743 652.475 356.21 699.96 359.997 713.651 C 363.493 726.857 371.456 746.667 373.106 746.667 C 375.146 746.667 385.147 719.089 387.575 707.048 C 391.071 688.793 394.955 639.755 395.246 610.235 L 395.343 590.814 L 373.204 590.523 C 353.491 590.329 351.064 590.426 350.481 591.882 Z " fill="rgb(0,0,0)"/></g></g></g></svg>