<?xml version="1.0" encoding="UTF-8" standalone="no"?><!-- Generator: Gravit.io --><svg xmlns="http://www.w3.org/2000/svg" xmlns:xlink="http://www.w3.org/1999/xlink" style="isolation:isolate" viewBox="0 0 578.7 453.4" width="578.7pt" height="453.4pt"><defs><clipPath id="_clipPath_y5eVVZd0XIQtlXVExQZ5crZtay7y7faL"><rect width="578.7" height="453.4"/></clipPath></defs><g clip-path="url(#_clipPath_y5eVVZd0XIQtlXVExQZ5crZtay7y7faL)"><path d=" M 249.876 306.101 L 249.884 306.101 L 249.884 306.101 L 249.884 306.101 L 249.884 306.101 L 326.648 374.256 C 349.22 395.393 379.552 408.342 412.885 408.342 C 464.411 408.342 508.768 377.401 528.373 333.101 L 453.983 333.101 C 448.835 333.101 444.655 328.922 444.655 323.773 L 444.655 297.43 C 444.655 292.281 448.835 288.101 453.983 288.101 L 569.327 288.101 C 574.476 288.101 578.655 292.281 578.655 297.43 L 578.655 323.773 C 578.655 324.577 578.553 325.357 578.362 326.101 L 578.362 326.101 L 578.362 326.101 L 578.445 326.101 L 578.445 326.101 C 559.01 399.345 492.209 453.389 412.885 453.389 C 365.875 453.389 323.263 434.407 292.301 403.698 C 291.787 403.41 291.3 403.056 290.841 402.649 L 45.155 184.519 L 45.155 436.101 C 45.155 441.621 40.674 446.101 35.155 446.101 L 10 446.101 C 4.481 446.101 0 441.621 0 436.101 L 0 129.101 C 0 123.582 4.481 119.101 10 119.101 L 10 119.101 L 33.169 119.101 C 36.05 118.397 39.219 119.072 41.603 121.189 L 249.876 306.101 L 249.876 306.101 Z  M 288.155 262.664 C 297.522 202.223 349.837 155.896 412.885 155.896 C 455.789 155.896 493.722 177.348 516.534 210.101 L 568.3 210.101 C 541.08 151.514 481.694 110.849 412.885 110.849 C 363.74 110.849 319.401 131.594 288.155 164.797 L 288.155 164.797 L 288.155 262.101 L 288.155 262.664 L 288.155 262.664 L 288.155 262.664 L 288.155 262.664 L 288.155 262.664 L 288.155 262.664 L 288.155 262.664 Z  M 253.155 118.101 L 278.155 118.101 C 283.674 118.101 288.155 122.582 288.155 128.101 L 288.155 262.101 L 288.155 262.101 C 288.155 267.621 283.674 272.101 278.155 272.101 L 253.155 272.101 C 247.636 272.101 243.155 267.621 243.155 262.101 L 243.155 128.101 C 243.155 122.582 247.636 118.101 253.155 118.101 Z " fill-rule="evenodd" fill="rgb(255,255,255)"/><g clip-path="url(#_clipPath_S8A420fCbSkDSfELZPTfbNCm7P9zyl6T)"><text transform="matrix(1,0,0,1,328.155,236.101)" style="font-family:'Alata';font-weight:400;font-size:40px;font-style:normal;fill:#ffffff;stroke:none;">Nooit      </text><text transform="matrix(1,0,0,1,386.955,274.741)" style="font-family:'Alata';font-weight:400;font-size:40px;font-style:normal;fill:#ffffff;stroke:none;">Gedacht</text></g><defs><clipPath id="_clipPath_S8A420fCbSkDSfELZPTfbNCm7P9zyl6T"><rect x="0" y="0" width="217" height="93.84" transform="matrix(1,0,0,1,328.155,192.101)"/></clipPath></defs><g clip-path="url(#_clipPath_bYJaTEfBUqw2gu5mi4qR7bCaMRKaY3Jh)"><text transform="matrix(1,0,0,1,55.475,442.189)" style="font-family:'Alata';font-weight:400;font-size:40px;font-style:normal;fill:#ffffff;stroke:none;">Windesheim</text></g><defs><clipPath id="_clipPath_bYJaTEfBUqw2gu5mi4qR7bCaMRKaY3Jh"><rect x="0" y="0" width="230" height="55.2" transform="matrix(1,0,0,1,55.155,398.189)"/></clipPath></defs><g clip-path="url(#_clipPath_IfUbIMv4U9y6KyKjjTEYn3RzpySOSpnF)"><text transform="matrix(1.405,0,0,1.405,0,78.793)" style="font-family:'Alata';font-weight:400;font-size:51px;font-style:normal;fill:#ffffff;stroke:none;">Muziekvereniging</text></g><defs><clipPath id="_clipPath_IfUbIMv4U9y6KyKjjTEYn3RzpySOSpnF"><rect x="0" y="0" width="412" height="70.38" transform="matrix(1.405,0,0,1.405,0,0)"/></clipPath></defs></g></svg>