<?xml version="1.0" standalone="no"?>
<!DOCTYPE svg PUBLIC "-//W3C//DTD SVG 20010904//EN"
 "http://www.w3.org/TR/2001/REC-SVG-20010904/DTD/svg10.dtd">
<svg version="1.0" xmlns="http://www.w3.org/2000/svg"
 width="1105.000000pt" height="1105.000000pt" viewBox="0 0 1105.000000 1105.000000"
 preserveAspectRatio="xMidYMid meet">
<metadata>
Created by potrace 1.14, written by Peter Selinger 2001-2017
</metadata>
<g transform="translate(0.000000,1105.000000) scale(0.100000,-0.100000)"
fill="#000000" stroke="none">
<path d="M3890 11040 c0 -7 63 -75 139 -153 213 -216 258 -265 341 -367 25
-30 47 -57 50 -60 3 -3 17 -21 30 -40 13 -19 27 -37 30 -40 12 -10 70 -101 70
-111 0 -5 4 -9 8 -9 18 0 177 -342 164 -354 -3 -3 0 -6 7 -6 7 0 9 -5 6 -10
-4 -6 -2 -16 3 -23 6 -7 12 -24 14 -37 2 -14 7 -31 11 -37 5 -7 6 -13 3 -13
-3 0 1 -18 9 -40 8 -22 12 -40 9 -40 -2 0 2 -16 10 -35 8 -19 13 -35 10 -35
-2 0 3 -14 11 -30 9 -17 20 -28 25 -25 10 6 45 109 61 180 6 28 14 61 17 75 9
35 8 342 -1 415 -16 123 -77 276 -138 345 -150 171 -322 306 -464 365 -42 17
-166 54 -200 60 -11 2 -40 8 -65 13 -82 18 -160 24 -160 12z"/>
<path d="M7050 11043 c-52 -9 -222 -53 -274 -72 -30 -10 -57 -16 -60 -13 -3 3
-6 1 -6 -5 0 -6 -15 -17 -32 -24 -29 -11 -124 -68 -153 -91 -16 -13 -108 -89
-130 -107 -45 -39 -139 -148 -172 -198 -29 -46 -86 -177 -84 -193 1 -5 -9 -61
-16 -95 -10 -46 -13 -342 -3 -399 21 -123 62 -257 85 -276 15 -12 27 25 72
215 9 40 12 50 13 53 2 1 3 5 4 10 21 89 115 309 139 324 7 4 9 8 4 8 -7 0 4
19 72 125 66 103 242 317 356 431 137 138 285 296 285 304 0 10 -51 11 -100 3z"/>
<path d="M5503 10628 c-1 -7 -13 -69 -27 -138 -15 -69 -28 -134 -30 -145 -2
-11 -9 -40 -16 -65 -7 -25 -13 -49 -15 -55 -1 -5 -5 -17 -8 -25 -5 -15 -40
-120 -42 -130 -2 -8 -25 -64 -35 -85 -71 -155 -108 -227 -155 -306 -64 -104
-145 -222 -157 -227 -4 -2 -8 -8 -8 -14 0 -13 -136 -174 -230 -272 -41 -43
-118 -114 -170 -157 -121 -101 -112 -94 -140 -109 -14 -7 -31 -19 -38 -27 -36
-35 -323 -191 -497 -268 -33 -15 -69 -31 -80 -36 -18 -8 -73 -30 -85 -34 -7
-2 -61 -24 -80 -32 -8 -3 -17 -7 -20 -7 -3 -1 -41 -16 -85 -33 -89 -35 -322
-118 -430 -153 -38 -12 -77 -25 -85 -28 -8 -3 -19 -6 -25 -8 -5 -1 -36 -12
-67 -23 -32 -12 -64 -21 -73 -21 -8 0 -15 -4 -15 -8 0 -5 -6 -9 -12 -9 -20 0
-222 -65 -235 -76 -7 -5 -13 -7 -13 -4 0 7 -123 -35 -210 -72 -40 -17 -78 -31
-86 -31 -8 0 -14 -4 -14 -10 0 -5 -6 -10 -14 -10 -12 0 -156 -66 -196 -90 -8
-5 -42 -23 -75 -39 -79 -40 -137 -73 -153 -88 -7 -7 -18 -13 -23 -13 -14 0
-284 -180 -339 -226 -40 -34 -299 -293 -325 -326 -42 -52 -110 -137 -127 -157
-54 -64 -187 -280 -239 -388 -33 -67 -59 -124 -59 -126 0 -3 -8 -22 -17 -43
-9 -22 -18 -43 -19 -49 -2 -9 -37 -109 -51 -145 -8 -19 -7 -18 -17 -60 -5 -19
-13 -41 -18 -47 -6 -7 -8 -13 -4 -13 3 0 1 -11 -4 -25 -5 -14 -12 -38 -15 -53
-8 -38 -13 -57 -15 -57 -1 0 -3 -8 -5 -17 -9 -48 -37 -188 -44 -219 -5 -20 -8
-65 -7 -100 1 -57 3 -64 22 -67 17 -2 30 12 64 72 24 42 47 76 52 76 4 0 8 5
8 10 0 23 167 230 305 379 127 136 289 288 369 346 16 11 33 25 40 30 46 41
302 215 315 215 6 0 11 4 11 8 0 5 15 16 33 25 17 9 55 30 82 47 28 17 58 33
68 37 9 3 17 10 17 15 0 5 4 7 9 3 5 -3 12 -1 16 4 8 14 504 257 533 262 4 1
25 11 47 22 22 12 43 22 48 23 4 1 9 3 12 4 3 1 8 3 13 4 4 1 23 9 42 18 19 9
112 48 205 88 94 39 190 81 215 92 25 11 50 21 55 22 6 1 15 4 20 8 11 7 186
85 221 98 20 8 20 6 16 -60 -4 -62 -2 -69 17 -75 19 -6 68 5 116 27 12 5 27
10 35 12 32 5 90 36 90 46 0 10 -55 74 -120 140 -14 14 -33 35 -43 46 l-18 22
174 -1 c194 -1 211 3 197 52 -4 16 -23 67 -41 115 -18 47 -30 88 -27 92 3 3
73 7 154 10 90 3 153 9 162 16 13 11 11 83 -3 157 -2 10 -6 43 -9 74 -6 52 -5
57 13 57 11 0 22 -4 25 -9 5 -7 51 -20 71 -21 3 0 18 -6 33 -14 41 -21 104
-28 123 -13 9 6 39 59 68 117 54 111 157 259 191 274 16 7 31 1 70 -25 27 -19
50 -37 50 -41 0 -5 5 -8 11 -8 6 0 26 -12 46 -27 19 -15 40 -28 47 -29 6 -1
19 -5 28 -9 18 -7 49 34 91 123 12 26 25 49 28 52 5 5 21 38 23 50 4 17 40 59
46 55 5 -3 33 -40 63 -83 30 -42 72 -96 94 -119 22 -24 38 -43 36 -43 -3 0 10
-12 28 -27 18 -16 46 -41 62 -56 64 -62 176 -137 201 -135 14 1 26 6 26 10 0
4 5 8 10 8 32 0 247 194 328 295 18 22 49 65 70 95 21 30 42 54 47 54 11 -2
22 -20 85 -144 63 -123 78 -142 103 -134 25 7 100 55 105 67 2 4 10 7 17 7 7
0 15 4 17 9 5 13 79 61 94 61 22 0 124 -114 124 -139 0 -6 4 -11 9 -11 5 0 11
-8 14 -17 7 -23 39 -76 51 -84 5 -4 5 -12 2 -18 -4 -6 -3 -11 2 -11 5 0 15
-18 22 -39 18 -56 53 -90 87 -86 52 6 95 19 170 51 17 8 39 14 48 14 18 0 18
-5 0 -120 -3 -14 -7 -57 -11 -97 -8 -86 -16 -82 161 -87 66 -2 130 -4 143 -5
19 -1 22 -5 17 -30 -3 -15 -12 -41 -20 -57 -8 -16 -15 -36 -15 -45 0 -8 -4
-19 -9 -25 -21 -22 -30 -72 -16 -90 12 -17 30 -19 189 -18 97 1 176 -1 176 -3
0 -2 -29 -33 -65 -70 -36 -36 -65 -67 -65 -69 0 -2 -11 -14 -25 -28 -30 -30
-32 -46 -5 -53 11 -3 20 -10 20 -15 0 -5 3 -7 8 -5 4 3 18 0 32 -6 14 -5 31
-11 38 -13 8 -1 21 -6 30 -10 9 -4 20 -8 25 -9 4 -2 8 -3 10 -5 1 -1 16 -4 34
-6 38 -6 47 12 41 84 -1 26 2 48 7 50 6 1 33 -8 60 -20 28 -12 52 -22 55 -23
3 -1 26 -11 52 -23 89 -41 138 -62 144 -62 3 0 35 -13 71 -30 35 -16 66 -30
69 -30 2 0 26 -10 52 -21 76 -34 104 -46 152 -65 25 -10 55 -24 68 -32 12 -8
22 -11 22 -8 0 4 10 0 23 -8 12 -8 27 -16 32 -17 6 0 26 -9 46 -20 20 -10 39
-15 43 -12 3 4 6 1 6 -5 0 -7 7 -12 15 -12 8 0 23 -4 33 -9 9 -6 114 -57 232
-115 118 -58 251 -125 294 -151 44 -25 83 -45 88 -45 4 0 8 -4 8 -10 0 -5 5
-10 11 -10 15 0 318 -202 386 -257 29 -23 55 -43 57 -43 10 0 245 -218 307
-285 15 -16 49 -53 76 -81 26 -28 68 -75 93 -104 25 -30 52 -61 60 -70 8 -8
26 -31 40 -50 13 -19 27 -37 31 -40 12 -8 139 -202 139 -211 0 -5 9 -18 19
-28 16 -16 22 -17 37 -7 25 19 17 114 -27 316 -29 133 -85 328 -127 440 -3 8
-6 17 -7 20 -7 19 -18 49 -28 70 -6 14 -11 27 -12 30 -34 99 -131 282 -216
407 -40 60 -75 110 -78 113 -3 3 -18 21 -32 40 -15 19 -36 46 -48 60 -11 14
-35 43 -53 64 -72 86 -326 334 -380 371 -135 91 -250 167 -278 183 -19 11 -63
36 -97 55 -35 20 -63 33 -63 29 0 -4 -4 -2 -8 5 -19 29 -518 253 -565 253 -9
0 -19 5 -22 10 -3 6 -16 10 -29 10 -12 0 -27 5 -34 12 -7 7 -12 9 -12 5 0 -3
-20 2 -45 13 -25 11 -47 19 -50 20 -13 0 -62 12 -80 20 -11 5 -38 14 -60 21
-22 6 -47 14 -55 17 -8 3 -17 6 -20 7 -3 1 -12 4 -20 8 -8 3 -85 29 -170 57
-142 47 -450 158 -510 183 -14 6 -27 11 -30 12 -12 4 -49 20 -95 40 -27 12
-61 26 -75 30 -14 4 -41 16 -60 26 -19 11 -39 19 -43 19 -5 0 -22 9 -38 21
-16 11 -29 18 -29 15 0 -7 -183 88 -222 116 -14 10 -29 18 -33 18 -9 0 -195
125 -229 155 -16 14 -32 25 -37 25 -12 0 -283 271 -325 325 -21 28 -47 57 -56
66 -10 9 -18 20 -18 25 0 5 -8 17 -17 26 -22 20 -30 30 -68 88 -16 25 -34 48
-40 52 -5 4 -6 8 -2 8 5 0 2 7 -5 15 -24 27 -34 40 -41 55 -4 8 -18 33 -31 55
-62 100 -200 406 -209 464 -1 9 -5 21 -8 26 -6 9 -16 47 -19 67 -1 4 -6 22
-11 40 -5 18 -16 67 -25 108 -15 76 -41 190 -50 223 -6 19 -30 23 -31 5z"/>
<path d="M3457 10454 c-1 -1 -24 -5 -50 -8 -106 -13 -264 -83 -414 -185 -116
-79 -182 -139 -165 -150 14 -8 79 -6 121 4 21 5 170 18 196 17 174 -8 395 -54
571 -117 96 -35 462 -211 622 -299 87 -49 102 -54 97 -33 -14 64 -18 77 -25
77 -4 0 -12 12 -19 28 -34 75 -203 305 -276 377 -191 185 -388 282 -587 289
-38 2 -69 2 -71 0z"/>
<path d="M7436 10453 c-1 -1 -16 -5 -34 -8 -89 -15 -225 -79 -323 -152 -115
-84 -177 -146 -270 -268 -38 -49 -74 -95 -79 -102 -6 -7 -10 -16 -10 -22 0 -5
-4 -11 -8 -13 -19 -8 -112 -182 -112 -209 0 -15 30 -10 58 9 15 10 45 27 67
37 22 11 45 25 51 31 21 19 356 181 461 223 92 37 268 93 330 106 12 3 33 7
46 10 158 33 413 41 517 16 59 -14 90 -14 90 0 0 25 -160 153 -260 208 -81 44
-163 81 -215 97 -85 25 -86 25 -132 27 -24 1 -43 5 -43 8 0 5 -129 7 -134 2z"/>
<path d="M2990 9988 c-14 -4 -61 -19 -105 -33 -44 -15 -86 -27 -92 -27 -7 -1
-13 -5 -13 -10 0 -4 -3 -7 -7 -6 -12 3 -130 -59 -203 -107 -90 -59 -132 -96
-315 -280 -220 -220 -284 -297 -272 -328 6 -16 23 -13 132 27 6 2 14 4 18 4 4
0 19 8 33 16 13 9 24 14 24 11 0 -2 24 5 53 16 132 53 337 118 482 154 50 13
123 18 258 21 177 3 235 -2 355 -31 105 -25 209 -44 272 -50 36 -4 76 -8 90
-11 37 -6 258 -6 315 1 143 16 201 30 354 86 115 42 185 75 200 93 17 20 -19
39 -79 42 -25 1 -62 5 -82 8 -21 3 -53 8 -70 11 -44 6 -59 10 -150 34 -150 41
-215 67 -518 214 -140 67 -270 123 -295 127 -3 1 -25 7 -49 14 -48 15 -293 18
-336 4z"/>
<path d="M7712 9988 c-4 -4 -18 -9 -32 -11 -14 -3 -52 -17 -85 -32 -33 -15
-76 -34 -95 -43 -19 -9 -37 -16 -40 -17 -3 0 -75 -35 -161 -77 -137 -66 -320
-146 -353 -152 -6 -2 -38 -11 -71 -21 -33 -11 -68 -20 -77 -21 -10 -1 -19 -3
-20 -4 -3 -3 -25 -7 -73 -14 -16 -2 -48 -7 -70 -11 -22 -4 -64 -8 -93 -10 -65
-3 -92 -23 -65 -47 34 -30 320 -138 403 -152 19 -4 55 -10 80 -14 59 -9 377
-9 460 1 118 13 144 18 280 52 58 15 141 28 185 30 44 3 82 5 85 6 12 3 244
-9 286 -15 17 -3 58 -12 91 -20 32 -9 68 -17 79 -19 10 -2 26 -7 34 -10 8 -3
60 -19 115 -37 120 -37 266 -90 281 -101 6 -5 19 -10 30 -12 10 -2 26 -7 34
-10 8 -4 41 -15 72 -26 49 -17 57 -17 62 -4 8 20 -8 47 -68 118 -106 125 -457
465 -481 465 -3 0 -15 9 -27 20 -12 11 -28 20 -35 20 -7 0 -13 4 -13 9 0 13
-194 105 -262 125 -112 32 -204 44 -326 43 -67 -1 -126 -5 -130 -9z"/>
<path d="M6289 9495 c-9 -31 1 -49 81 -150 83 -105 90 -113 150 -170 101 -96
147 -135 160 -135 6 0 10 -3 10 -7 0 -9 122 -93 134 -93 4 0 16 -8 26 -18 47
-44 445 -231 524 -246 11 -3 41 -12 66 -21 43 -15 247 -69 300 -79 14 -2 46
-9 72 -15 27 -6 51 -11 55 -10 5 1 10 0 13 -1 3 -1 12 -3 20 -5 42 -9 77 -16
95 -20 22 -4 52 -11 100 -22 17 -4 33 -6 37 -5 4 1 22 -5 41 -13 19 -8 37 -12
39 -9 3 2 24 -2 47 -10 23 -9 42 -15 44 -15 6 1 71 -15 167 -43 58 -16 112
-31 120 -33 20 -5 240 -74 260 -82 8 -3 20 -7 25 -9 12 -3 127 -47 170 -65 17
-7 32 -13 35 -14 3 0 28 -12 55 -25 28 -13 53 -24 58 -25 4 -2 9 -4 12 -5 3
-1 8 -3 13 -4 4 -1 18 -8 32 -16 14 -8 27 -15 30 -15 13 -2 235 -119 315 -165
50 -29 104 -60 121 -70 18 -10 68 -41 112 -68 45 -28 85 -46 91 -42 36 22 -57
359 -159 575 -25 55 -63 126 -83 158 -20 31 -35 57 -32 57 3 0 -3 9 -12 19
-10 11 -34 41 -53 67 -19 27 -42 56 -50 65 -73 79 -139 144 -173 171 -22 18
-48 40 -57 48 -45 40 -221 132 -278 145 -9 2 -37 12 -62 21 -90 32 -194 55
-318 68 -23 3 -47 8 -52 11 -5 3 -11 1 -15 -5 -4 -6 -12 -7 -24 -1 -20 11
-621 11 -621 0 0 -4 -16 -3 -34 1 -19 4 -38 5 -41 2 -8 -9 -574 -9 -588 0 -6
4 -19 2 -29 -3 -10 -5 -18 -6 -18 -2 0 5 -19 9 -42 9 -78 2 -148 9 -148 14 0
3 -10 5 -22 6 -86 3 -208 31 -323 73 -62 23 -199 101 -274 155 -82 59 -120 81
-122 71z"/>
<path d="M4705 9478 c-11 -6 -22 -14 -25 -17 -3 -3 -27 -22 -55 -40 -27 -19
-52 -38 -55 -41 -6 -7 -102 -64 -110 -65 -3 -1 -18 -8 -35 -17 -46 -23 -224
-79 -270 -83 -5 -1 -35 -7 -65 -13 -57 -12 -112 -19 -214 -27 -33 -3 -61 -7
-64 -10 -2 -2 -13 0 -23 5 -10 6 -20 7 -23 2 -4 -7 -551 -7 -616 1 -19 2 -41
0 -47 -6 -8 -6 -13 -6 -13 0 0 6 -118 9 -307 8 -387 -3 -412 -5 -606 -51 -9
-2 -25 -6 -35 -8 -47 -11 -194 -67 -252 -96 -189 -95 -394 -294 -515 -500 -21
-36 -46 -77 -57 -92 -10 -15 -18 -34 -18 -42 0 -8 -4 -17 -9 -20 -21 -13 -116
-276 -147 -406 -24 -100 -24 -102 -29 -149 -5 -43 -5 -43 22 -37 16 4 57 25
93 47 36 22 74 45 85 52 11 7 31 19 45 28 32 21 85 51 185 104 148 79 160 85
172 85 7 0 13 5 13 10 0 6 6 10 13 10 6 0 26 7 42 16 131 69 434 182 670 250
95 28 270 75 295 80 14 3 34 8 45 11 11 4 22 8 25 8 3 1 32 7 65 14 33 7 67
15 75 18 8 3 22 7 30 8 8 1 35 6 60 11 25 4 50 9 55 10 6 1 12 3 15 4 11 4 47
10 77 12 18 2 33 6 33 9 0 3 6 6 13 7 6 0 23 3 37 5 14 3 43 8 65 12 22 4 43
9 47 12 5 2 16 6 25 8 10 1 45 10 78 19 33 9 67 18 75 20 126 31 402 149 550
234 65 37 283 185 307 208 11 10 42 40 69 65 50 46 105 106 159 174 17 20 35
42 40 49 69 80 74 141 10 104z"/>
<path d="M4330 7332 c-8 -3 -64 -38 -125 -77 -60 -39 -118 -74 -127 -78 -10
-3 -18 -11 -18 -17 0 -6 -4 -9 -9 -6 -5 3 -14 -1 -21 -9 -7 -8 -17 -15 -22
-15 -5 0 -24 -11 -42 -25 -18 -14 -38 -25 -44 -25 -6 0 -15 -6 -19 -14 -4 -7
-18 -18 -30 -25 -13 -6 -23 -18 -23 -25 0 -38 90 -93 125 -76 3 1 8 3 13 4 4
1 23 7 42 13 30 10 55 11 92 4 4 0 13 -20 20 -43 17 -57 63 -100 150 -141 124
-57 138 -61 315 -73 43 -3 80 -7 81 -9 7 -7 5 -100 -2 -140 -13 -75 -13 -84 1
-89 19 -8 73 5 73 17 0 6 3 8 6 4 4 -3 19 0 35 9 36 18 36 21 24 -146 -3 -52
-8 -104 -11 -115 -2 -11 -6 -36 -9 -55 -6 -46 -14 -86 -27 -135 -5 -22 -10
-42 -10 -45 0 -3 -6 -21 -13 -40 -20 -52 -58 -183 -58 -197 0 -7 -4 -13 -9
-13 -5 0 -6 -4 -3 -10 3 -5 -1 -23 -10 -41 -9 -17 -14 -33 -11 -36 3 -3 1 -14
-5 -25 -12 -22 -35 -106 -42 -155 -4 -22 -1 -33 9 -37 11 -4 27 21 59 90 25
53 45 102 45 108 0 7 4 16 9 22 18 20 144 362 186 503 22 77 29 107 39 171 1
9 5 20 8 25 3 6 4 19 2 29 -1 11 1 27 5 35 9 16 17 73 27 186 3 33 8 63 10 67
3 5 2 8 -3 8 -4 0 -9 21 -10 48 -1 26 -4 61 -6 77 -24 148 -31 171 -63 222
-30 45 -87 79 -189 109 -71 21 -71 21 -91 23 -9 0 -33 20 -54 42 l-38 41 -33
-23 c-18 -13 -40 -30 -47 -37 -28 -25 -79 -62 -87 -62 -5 0 20 27 55 60 74 69
74 66 -24 117 -54 28 -74 33 -96 25z"/>
<path d="M6925 7311 c-111 -53 -110 -50 -36 -120 36 -34 62 -63 59 -66 -3 -3
-19 8 -35 24 -34 32 -131 101 -142 101 -3 -1 -15 -15 -26 -33 -14 -22 -34 -36
-65 -46 -25 -8 -52 -16 -60 -19 -8 -3 -26 -7 -40 -9 -55 -9 -147 -63 -174
-101 -24 -35 -52 -134 -61 -217 -2 -16 -4 -32 -6 -35 -5 -11 -4 -250 1 -250 3
0 6 -10 6 -22 1 -26 11 -110 19 -148 4 -20 15 -72 30 -145 5 -28 28 -101 33
-110 4 -5 7 -14 8 -20 2 -12 52 -152 64 -180 4 -11 32 -81 61 -155 90 -231
154 -356 160 -310 1 6 2 16 3 23 1 6 -4 29 -11 50 -6 20 -10 37 -7 37 2 0 -2
16 -10 35 -9 20 -16 39 -16 43 -3 22 -13 60 -21 77 -5 11 -11 29 -12 40 -2 11
-7 28 -10 38 -4 9 -10 25 -14 35 -3 9 -8 24 -10 32 -4 16 -4 15 -23 80 -7 25
-14 50 -16 57 -1 6 -7 27 -12 45 -24 75 -39 180 -49 345 -6 98 0 139 17 113 6
-8 10 -12 10 -7 0 4 14 0 32 -9 17 -9 45 -18 61 -21 l29 -5 -8 69 c-8 72 -9
162 -1 169 2 2 41 7 86 9 45 3 96 7 114 10 77 13 137 29 137 37 0 4 7 8 15 8
27 0 119 51 152 85 18 18 35 48 38 68 11 55 25 62 93 47 31 -7 64 -16 72 -20
32 -16 130 41 130 75 0 15 -159 125 -180 125 -5 0 -10 3 -10 8 0 4 -9 12 -19
17 -49 25 -136 80 -139 87 -2 4 -9 8 -16 8 -7 0 -21 9 -31 20 -10 11 -24 20
-32 20 -7 0 -13 3 -13 8 0 6 -47 32 -59 32 -4 0 -33 -13 -66 -29z"/>
<path d="M3099 7268 c-24 -15 -50 -28 -56 -28 -7 0 -13 -4 -13 -8 0 -5 -19
-16 -42 -27 -24 -10 -45 -21 -48 -24 -3 -3 -43 -25 -90 -49 -128 -65 -355
-186 -495 -266 -49 -28 -102 -57 -117 -65 -16 -8 -28 -18 -28 -23 0 -4 -5 -8
-12 -8 -9 0 -309 -185 -343 -212 -5 -5 -64 -48 -130 -96 -157 -115 -282 -222
-338 -289 -10 -13 -30 -35 -45 -50 -37 -38 -118 -142 -185 -238 -141 -204
-256 -491 -301 -755 -3 -19 -8 -46 -11 -60 -3 -14 -8 -45 -11 -70 -3 -25 -7
-56 -9 -70 -25 -137 -24 -572 0 -770 3 -25 7 -61 10 -80 12 -104 44 -283 76
-427 16 -73 29 -135 29 -137 0 -2 9 -6 19 -9 17 -4 51 19 49 33 -1 5 8 56 18
100 5 22 9 44 18 90 1 8 11 42 21 75 10 33 20 67 22 75 6 23 9 33 21 63 7 16
12 30 12 31 0 2 8 21 17 42 9 22 17 44 19 49 5 27 144 301 201 399 106 177
301 451 383 537 8 8 46 49 83 91 82 92 219 230 305 307 35 31 80 72 101 91 20
20 47 43 59 52 12 8 39 30 60 49 20 19 96 81 167 139 72 57 135 109 142 115
17 14 27 22 113 90 41 32 77 62 80 65 3 3 25 21 50 40 25 19 47 37 50 40 3 3
34 29 70 58 120 98 153 127 230 202 42 41 90 95 106 120 16 25 33 48 39 52 7
5 7 8 0 8 -7 0 -7 3 0 8 13 9 54 99 61 132 17 84 14 110 -13 153 -16 23 -38
52 -50 65 -13 13 -23 29 -23 36 0 7 -8 21 -17 32 -22 24 -87 154 -108 214 -1
3 -5 14 -9 25 -4 11 -13 34 -19 50 -14 41 -35 64 -56 62 -10 0 -37 -14 -62
-29z"/>
<path d="M7853 7292 c-6 -4 -27 -50 -46 -102 -20 -52 -48 -118 -62 -145 -55
-102 -80 -145 -87 -145 -5 0 -8 -7 -8 -15 0 -8 -3 -15 -7 -15 -16 0 -65 -91
-68 -126 -4 -39 24 -133 62 -209 64 -125 174 -233 533 -519 102 -81 194 -155
205 -164 11 -10 77 -62 145 -117 135 -107 148 -118 188 -153 15 -13 47 -40 71
-60 51 -42 63 -53 187 -173 184 -177 386 -405 503 -564 28 -38 54 -74 59 -80
18 -23 112 -165 157 -240 111 -183 251 -495 280 -625 2 -8 4 -16 5 -17 2 -2 3
-6 5 -10 1 -5 5 -20 9 -34 4 -14 9 -34 11 -45 2 -10 4 -19 5 -19 1 0 3 -9 5
-20 2 -11 6 -31 9 -45 3 -14 9 -41 12 -60 4 -19 11 -41 17 -47 5 -7 6 -13 1
-13 -5 0 2 -7 15 -16 22 -16 24 -16 34 2 6 10 12 24 13 29 1 6 13 62 27 125
31 141 45 212 52 265 3 23 8 52 10 65 3 14 7 46 10 71 2 26 6 60 9 75 25 150
26 647 2 784 -3 14 -7 48 -11 75 -3 28 -10 68 -15 90 -5 22 -11 59 -15 83 -3
23 -12 60 -20 82 -8 22 -12 40 -10 40 2 0 -7 34 -20 75 -12 41 -20 77 -17 80
3 3 1 5 -4 5 -5 0 -16 21 -23 48 -16 55 -118 265 -132 270 -5 2 -9 8 -9 14 0
6 -16 33 -35 59 -19 27 -35 53 -35 58 0 5 -3 11 -7 13 -5 2 -24 24 -44 50
-157 206 -349 388 -569 538 -19 13 -37 27 -40 30 -13 15 -368 241 -455 290
-195 110 -405 223 -672 361 -54 28 -117 62 -141 76 -49 27 -74 34 -89 25z"/>
<path d="M3254 6022 c-38 -31 -104 -84 -145 -117 -40 -33 -79 -64 -85 -70 -6
-5 -26 -21 -44 -35 -18 -14 -38 -30 -44 -35 -6 -6 -38 -33 -71 -60 -33 -28
-62 -52 -65 -55 -3 -3 -30 -25 -60 -50 -30 -25 -60 -49 -66 -55 -7 -5 -36 -30
-65 -55 -29 -25 -61 -53 -71 -62 -10 -10 -20 -18 -22 -18 -3 0 -17 -12 -33
-27 -16 -16 -70 -65 -121 -111 -152 -138 -256 -246 -342 -352 -19 -24 -41 -49
-47 -56 -7 -7 -13 -15 -13 -17 0 -2 -22 -37 -49 -78 -84 -128 -215 -404 -236
-499 -1 -3 -10 -32 -20 -65 -21 -66 -21 -69 -29 -105 -24 -109 -27 -124 -42
-245 -18 -132 -7 -574 16 -677 5 -25 4 -38 -2 -38 -7 0 -7 -4 0 -12 5 -7 13
-37 17 -67 6 -43 51 -251 69 -321 31 -114 38 -138 53 -177 8 -24 14 -46 15
-60 1 -7 5 -13 10 -13 4 0 7 -3 7 -7 -1 -5 0 -10 1 -13 1 -3 3 -12 5 -20 17
-83 293 -683 326 -710 4 -3 9 -15 13 -27 4 -13 13 -29 19 -36 7 -7 25 -37 40
-67 16 -29 41 -72 55 -94 14 -23 27 -47 28 -55 2 -8 6 -17 11 -20 4 -3 21 -25
37 -49 31 -45 60 -53 63 -17 11 120 19 311 26 598 1 31 4 57 7 57 3 0 5 24 6
53 0 46 6 99 19 177 13 79 16 96 20 110 2 8 6 32 10 54 3 21 7 41 9 45 2 3 7
28 10 55 4 27 9 53 12 58 3 4 7 17 9 29 9 44 57 226 76 284 10 33 34 105 51
160 18 55 35 102 38 105 3 3 12 25 20 50 8 25 22 61 31 80 10 19 15 38 12 42
-2 5 0 8 5 8 6 0 13 12 17 27 10 40 208 438 225 453 4 3 17 25 31 50 33 59 52
91 62 104 4 6 40 58 79 116 40 58 76 110 80 115 5 6 31 39 59 75 28 36 55 67
60 68 5 2 9 8 9 14 0 5 12 22 28 38 15 16 34 37 42 48 17 22 127 147 150 171
9 9 43 47 75 86 33 38 71 81 84 95 39 42 143 183 152 207 5 14 3 36 -5 60 -19
54 -116 261 -143 304 -12 20 -19 40 -16 43 4 3 2 6 -4 6 -6 0 -13 9 -16 20
-14 53 -127 25 -224 -55 -7 -5 -19 -16 -27 -22 -8 -7 -18 -13 -21 -13 -3 0
-16 -10 -29 -22 -13 -13 -42 -38 -65 -57 -144 -116 -379 -351 -471 -471 -19
-25 -41 -49 -47 -53 -7 -4 -13 -15 -13 -22 0 -8 -4 -15 -8 -15 -9 0 -67 -77
-91 -120 -8 -14 -17 -27 -20 -30 -8 -6 -91 -130 -91 -136 0 -2 -18 -33 -40
-70 -67 -108 -212 -403 -213 -431 0 -7 -4 -13 -9 -13 -4 0 -7 -3 -6 -7 2 -5
-6 -28 -16 -53 -10 -25 -17 -46 -17 -48 1 -1 -6 -19 -15 -40 -8 -20 -17 -44
-20 -52 -2 -8 -11 -37 -20 -65 -15 -48 -22 -70 -25 -80 0 -2 -7 -26 -16 -52
-19 -65 -60 -221 -67 -258 -3 -16 -7 -41 -10 -55 -13 -56 -17 -77 -22 -110 -3
-19 -9 -50 -14 -68 -5 -18 -7 -42 -5 -52 2 -11 0 -22 -5 -25 -4 -3 -6 64 -4
147 5 150 11 263 14 263 1 0 3 20 4 45 2 25 9 79 17 120 7 41 12 78 11 83 -1
4 3 7 9 7 5 0 7 4 4 10 -7 12 49 220 82 300 3 8 7 20 9 25 5 19 56 150 74 190
10 22 19 43 19 47 3 19 105 214 115 220 6 4 8 8 4 8 -11 0 157 274 190 308 6
7 12 17 12 20 0 4 10 18 23 32 12 14 41 50 63 80 23 30 51 66 63 80 12 14 45
52 74 85 65 75 303 312 387 385 35 30 73 64 86 75 12 11 44 38 70 60 26 22 65
57 85 77 l38 38 -16 52 c-8 29 -23 69 -32 88 -10 19 -37 84 -61 145 -40 99
-65 145 -80 145 -3 0 -37 -26 -76 -58z"/>
<path d="M7688 6058 c-17 -25 -62 -113 -59 -113 4 0 -10 -37 -54 -145 -63
-153 -62 -141 -10 -191 51 -50 75 -71 125 -113 125 -103 356 -325 481 -461
121 -132 258 -315 372 -495 56 -89 217 -410 247 -495 69 -191 111 -324 126
-398 2 -10 5 -26 8 -35 5 -16 8 -34 23 -142 3 -25 7 -62 7 -82 1 -21 3 -38 6
-38 3 0 6 -33 7 -73 1 -39 5 -133 8 -207 3 -74 3 -132 0 -129 -3 3 -6 19 -7
35 -1 16 -4 34 -7 39 -3 6 -6 17 -8 25 -1 8 -5 35 -9 60 -5 25 -9 50 -9 55 -1
6 -4 24 -8 40 -4 17 -9 39 -11 50 -3 11 -10 43 -16 70 -6 28 -13 57 -15 65
-13 63 -50 184 -85 285 -23 66 -44 130 -47 143 -3 12 -9 22 -14 22 -5 0 -9 7
-9 15 0 9 -22 66 -50 128 -27 62 -50 117 -50 124 0 6 -3 13 -7 15 -5 2 -26 39
-48 83 -22 43 -68 126 -102 184 -35 57 -63 106 -63 108 0 6 -169 241 -185 256
-8 9 -15 18 -15 21 0 3 -8 14 -17 25 -10 10 -36 40 -58 66 -58 71 -290 302
-360 360 -33 28 -64 56 -68 63 -4 6 -12 12 -18 12 -5 0 -20 10 -32 23 -31 31
-134 107 -147 107 -5 0 -10 3 -10 8 0 8 -48 31 -79 37 -12 2 -26 7 -31 10 -6
3 -10 1 -10 -6 0 -7 -3 -10 -6 -6 -10 9 -47 -42 -78 -108 -66 -137 -107 -226
-125 -274 -18 -48 -18 -51 0 -90 10 -22 23 -46 29 -53 6 -7 28 -33 50 -58 22
-25 40 -48 40 -51 0 -3 17 -24 38 -46 20 -22 57 -64 82 -93 25 -29 56 -65 70
-80 14 -14 47 -53 75 -86 27 -32 52 -61 55 -64 45 -40 347 -441 352 -467 1 -4
10 -17 20 -27 9 -10 15 -23 12 -28 -3 -4 -1 -8 4 -8 5 0 15 -12 23 -27 8 -16
16 -30 19 -33 19 -16 177 -319 233 -445 57 -128 70 -159 72 -170 0 -5 7 -23
13 -40 16 -39 23 -59 22 -63 0 -1 7 -16 15 -32 9 -17 13 -30 10 -30 -3 0 1
-13 10 -30 9 -16 13 -30 10 -30 -3 0 -1 -10 6 -21 9 -18 34 -96 54 -169 2 -8
12 -42 21 -75 9 -33 17 -64 19 -70 1 -5 5 -21 8 -35 12 -46 36 -155 41 -180 7
-37 15 -77 22 -107 8 -40 17 -104 18 -130 1 -13 4 -23 7 -23 4 0 6 -16 5 -35
-1 -19 1 -35 4 -35 3 0 5 -21 5 -47 -1 -27 1 -52 4 -58 3 -5 6 -37 7 -70 4
-110 14 -399 19 -492 4 -93 21 -148 41 -135 22 14 274 448 274 472 0 5 3 10 8
12 4 2 18 28 32 58 13 30 30 62 36 70 7 8 13 18 14 22 8 34 14 48 21 48 5 0 9
8 9 18 0 10 6 26 14 37 7 11 14 23 15 27 2 9 30 74 60 140 11 26 21 54 21 62
0 8 4 17 9 20 5 3 16 28 25 55 9 27 21 62 28 78 6 15 12 30 13 33 0 3 9 32 20
65 10 33 19 62 20 65 1 3 8 25 15 50 8 25 15 52 16 60 2 8 12 49 22 90 11 41
23 92 26 112 3 21 10 57 15 80 5 24 12 67 16 97 4 30 8 61 10 70 27 143 27
611 -1 744 -2 12 -7 37 -10 56 -14 85 -58 264 -70 282 -3 5 -7 17 -9 28 -11
56 -145 347 -193 418 -10 15 -36 55 -58 88 -47 72 -44 68 -137 180 -79 94
-191 203 -403 390 -12 11 -44 38 -70 60 -25 22 -52 45 -58 51 -6 6 -54 46
-106 89 -52 43 -104 87 -115 97 -11 9 -63 52 -116 95 -148 121 -179 146 -207
171 -69 60 -174 142 -181 142 -5 0 -15 -10 -23 -22z"/>
<path d="M4783 5191 c2 -10 1 -24 -3 -31 -17 -27 42 -165 97 -229 30 -36 64
-57 178 -111 77 -37 169 -80 205 -96 108 -47 294 -144 316 -166 14 -12 21 -30
20 -49 -1 -16 1 -29 4 -29 4 0 6 -69 6 -154 l-1 -154 -35 -39 c-19 -21 -61
-59 -94 -83 -32 -25 -64 -50 -70 -55 -27 -26 -106 -75 -120 -75 -9 0 -16 -4
-16 -9 0 -8 -19 -18 -50 -26 -3 -1 -12 -5 -20 -8 -96 -42 -251 -43 -331 -1
-16 8 -29 12 -29 10 0 -3 -19 2 -42 10 -80 29 -84 28 -105 -22 -16 -35 -19
-62 -17 -127 5 -102 5 -107 16 -107 5 0 7 -4 4 -9 -7 -10 49 -100 78 -124 11
-10 31 -27 43 -37 22 -19 23 -19 55 8 18 15 42 36 54 47 60 57 216 175 232
175 5 0 12 4 14 9 6 16 122 68 201 90 43 12 105 24 138 26 33 2 62 5 64 7 8 8
229 -2 315 -15 58 -9 147 -41 216 -78 65 -34 200 -126 244 -166 113 -102 129
-120 124 -139 -4 -17 40 -186 131 -499 24 -84 56 -208 65 -255 5 -25 15 -75
23 -111 9 -36 18 -79 21 -95 2 -16 7 -38 9 -49 3 -11 8 -40 12 -65 4 -25 9
-54 11 -65 2 -10 6 -36 9 -57 12 -78 15 -99 20 -130 3 -18 8 -53 10 -78 2 -25
7 -61 9 -80 8 -53 15 -109 20 -170 3 -30 8 -89 12 -130 25 -285 35 -888 25
-1475 -3 -181 -4 -175 17 -175 15 1 92 63 92 76 0 2 4 10 10 17 47 58 68 89
128 188 37 63 81 141 97 174 17 33 35 63 40 67 6 4 6 8 2 8 -5 0 -2 12 7 27
25 48 63 147 72 188 1 6 10 38 19 72 9 35 18 72 21 83 21 97 34 164 38 197 3
18 7 40 10 50 26 91 26 613 1 823 -2 14 -4 25 -6 25 -1 0 -3 14 -4 30 -1 17
-5 37 -9 46 -4 9 -8 29 -10 45 -2 16 -5 31 -6 34 -1 3 -3 10 -4 15 -10 51 -97
328 -107 341 -5 6 -10 19 -12 30 -2 10 -9 30 -14 44 -6 14 -22 53 -36 88 -51
123 -62 149 -152 327 -94 186 -116 226 -126 235 -3 3 -12 19 -21 35 -33 65
-53 100 -60 103 -5 2 -8 9 -8 15 0 6 -11 27 -23 46 -13 20 -53 84 -89 142 -63
102 -65 107 -63 168 1 34 -2 64 -7 67 -4 3 -6 10 -2 15 7 12 -13 74 -30 88 -9
8 -28 6 -69 -8 -32 -11 -57 -18 -57 -16 0 2 -12 -2 -27 -10 -15 -8 -30 -12
-35 -9 -4 3 -8 1 -8 -3 0 -10 -13 -12 -110 -17 -41 -1 -79 0 -85 3 -5 3 -18 6
-27 7 -10 1 -20 3 -23 4 -3 1 -8 3 -12 5 -46 12 -168 74 -192 96 -11 11 -24
19 -28 19 -14 0 -167 131 -190 163 -12 17 -20 34 -17 38 3 5 1 9 -4 9 -16 0
-8 331 9 358 12 20 212 125 364 192 162 71 300 145 336 179 22 22 53 69 70
107 32 71 49 167 31 178 -13 8 -54 -7 -73 -27 -19 -18 -98 -69 -129 -83 -14
-5 -65 -11 -115 -13 -124 -3 -171 -10 -224 -33 -136 -59 -196 -72 -336 -72
-129 0 -195 11 -276 47 -128 55 -124 54 -269 58 -52 1 -108 6 -125 12 -28 10
-114 63 -125 77 -8 11 -67 40 -81 40 -6 0 -9 -8 -6 -19z"/>
<path d="M4279 5038 c-13 -43 6 -88 59 -145 21 -24 37 -45 34 -48 -3 -3 -1 -5
4 -5 5 0 25 -14 44 -30 19 -17 40 -34 45 -38 129 -93 199 -116 355 -115 95 1
121 6 131 25 7 14 0 20 -44 36 -29 11 -73 25 -97 31 -51 13 -202 71 -210 80
-3 3 -18 13 -35 21 -29 15 -54 33 -80 58 -8 6 -18 12 -23 12 -6 0 -12 3 -14 8
-5 11 -100 87 -125 101 -20 10 -42 15 -44 9z"/>
<path d="M4154 4955 c-7 -17 22 -99 48 -137 11 -16 17 -28 13 -28 -14 0 104
-160 155 -210 56 -55 175 -123 235 -135 33 -7 218 -7 253 0 64 12 206 19 360
17 95 -2 177 0 182 3 17 11 -26 75 -49 75 -6 0 -11 3 -11 8 0 11 -79 44 -141
57 -57 12 -170 12 -269 0 -100 -12 -264 -11 -308 2 -106 31 -182 92 -357 286
-68 75 -100 93 -111 62z"/>
<path d="M3915 4736 c-17 -18 -48 -54 -70 -80 -22 -27 -51 -60 -65 -75 -14
-15 -40 -45 -58 -68 -18 -23 -44 -54 -58 -70 -14 -15 -44 -53 -67 -83 -23 -30
-45 -57 -48 -60 -11 -10 -117 -165 -156 -230 -75 -123 -184 -330 -228 -435
-45 -105 -88 -214 -101 -255 -9 -25 -18 -52 -21 -60 -8 -20 -7 -17 -53 -170
-23 -74 -54 -193 -70 -265 -30 -133 -34 -153 -46 -240 -3 -27 -8 -59 -10 -70
-2 -11 -6 -51 -10 -90 -3 -38 -7 -88 -9 -110 -25 -233 -25 -657 -1 -805 2 -14
7 -50 11 -80 9 -81 51 -282 80 -385 14 -49 28 -100 30 -113 13 -56 63 -183
119 -302 62 -131 181 -290 216 -290 24 0 29 16 18 65 -5 22 -11 51 -14 65 -2
14 -8 48 -14 75 -6 28 -13 66 -16 85 -3 19 -7 42 -10 50 -4 15 -9 68 -20 210
-13 169 -2 462 22 615 3 17 7 48 10 70 2 22 6 51 9 65 3 14 8 39 11 55 4 17 7
42 8 58 0 15 5 27 9 27 4 0 7 6 6 13 -2 6 0 26 4 42 4 17 10 41 13 55 8 39 12
55 14 55 1 0 3 7 5 15 24 111 39 160 47 160 5 0 7 4 4 9 -6 8 6 53 24 96 9 20
22 61 26 80 3 14 42 113 59 152 8 17 15 36 15 42 0 6 5 19 10 29 6 9 25 53 44
97 19 44 57 128 85 187 28 60 51 111 50 114 0 4 3 10 8 13 4 3 17 24 28 46 38
76 145 264 208 367 35 57 70 114 78 127 8 14 38 60 67 104 28 44 52 83 52 87
0 5 4 10 8 12 11 4 189 280 201 310 8 21 5 28 -17 44 -182 134 -248 198 -291
277 -17 31 -29 57 -27 57 3 0 0 15 -5 33 -13 40 -20 74 -24 112 -2 17 -4 30
-5 30 -2 0 -6 22 -14 72 -11 70 -12 75 -27 83 -10 6 -24 -2 -44 -24z"/>
<path d="M7084 4762 c-19 -12 -30 -45 -33 -91 -2 -24 -5 -52 -7 -63 -10 -44
-12 -55 -19 -96 -20 -124 -100 -244 -215 -325 -53 -37 -90 -65 -120 -91 l-31
-26 37 -62 c21 -35 93 -146 160 -248 119 -182 229 -356 275 -435 252 -439 428
-838 530 -1205 7 -25 14 -49 15 -55 2 -5 8 -28 13 -50 5 -22 11 -49 14 -60 8
-32 35 -167 41 -202 8 -45 15 -84 20 -108 2 -11 7 -49 11 -85 4 -36 9 -78 10
-94 7 -53 18 -250 18 -321 0 -80 -12 -316 -17 -324 -2 -3 -7 -35 -11 -71 -10
-85 -13 -105 -15 -105 -2 0 -3 -7 -20 -90 -6 -33 -14 -71 -17 -85 -18 -82 9
-92 71 -27 48 49 152 211 162 251 3 14 10 26 15 26 5 0 9 4 9 9 0 5 5 22 12
38 6 15 12 30 13 33 1 3 5 12 8 20 9 20 74 203 76 213 0 4 1 8 2 10 9 29 59
238 63 262 3 17 10 53 15 80 9 46 20 125 26 185 2 14 6 57 10 95 9 84 10 430
1 570 -15 235 -20 296 -32 360 -2 11 -6 38 -9 60 -4 37 -7 50 -20 115 -2 14
-7 39 -10 57 -3 18 -9 43 -15 57 -5 15 -8 26 -5 26 2 0 -5 29 -15 65 -10 36
-19 69 -19 73 -4 29 -93 312 -118 372 -3 8 -7 17 -8 20 -48 140 -178 411 -280
585 -73 125 -279 407 -364 497 -9 9 -21 23 -26 30 -19 25 -120 142 -155 180
-20 22 -40 35 -46 30z"/>
<path d="M6160 4295 c-21 -25 -1 -52 67 -86 37 -19 69 -34 72 -34 4 0 11 -3
16 -6 9 -6 38 -14 85 -26 36 -8 129 -4 170 8 25 7 47 13 50 13 18 3 90 40 90
48 0 4 6 8 13 8 16 0 47 36 47 55 0 18 -29 19 -118 5 -100 -17 -333 -13 -363
6 -5 2 -29 7 -55 10 -26 2 -50 7 -54 9 -4 3 -13 -2 -20 -10z"/>
<path d="M4384 3666 c-6 -7 -17 -23 -24 -37 -7 -13 -16 -26 -19 -29 -6 -5
-131 -212 -196 -325 -94 -163 -221 -418 -285 -570 -23 -55 -49 -115 -57 -134
-8 -18 -16 -39 -18 -45 -1 -6 -8 -24 -14 -41 -7 -16 -14 -34 -15 -40 -11 -41
-20 -72 -25 -80 -3 -5 -6 -14 -8 -20 -1 -5 -14 -53 -28 -105 -64 -237 -78
-369 -79 -735 0 -216 6 -285 35 -440 26 -132 25 -132 38 -173 5 -18 10 -33 9
-35 -1 -9 16 -84 21 -92 3 -5 7 -19 8 -30 2 -11 6 -27 10 -35 3 -8 7 -20 8
-26 9 -42 163 -353 198 -398 4 -6 31 -47 60 -91 71 -109 138 -185 163 -185 19
0 31 23 28 55 -5 45 -4 1067 1 1245 4 151 12 289 19 360 2 19 7 65 10 101 4
36 8 76 11 90 2 13 6 53 9 89 4 36 9 77 11 90 6 25 12 71 20 140 2 19 6 44 8
55 3 11 8 40 11 65 3 25 8 55 11 68 3 12 7 30 9 41 2 10 7 34 10 52 8 45 19
104 31 154 3 11 11 49 19 85 8 36 19 78 25 93 6 15 9 27 6 27 -2 0 1 15 6 33
6 17 23 79 38 137 16 58 49 176 75 262 25 87 46 164 46 171 0 8 -11 34 -25 58
-14 24 -28 51 -32 59 -18 41 -96 150 -106 150 -7 -1 -17 -6 -23 -14z"/>
<path d="M4824 3272 c-9 -6 -38 -68 -39 -82 0 -3 -3 -9 -6 -15 -4 -5 -16 -44
-28 -85 -13 -41 -26 -86 -31 -100 -12 -33 -24 -93 -22 -102 1 -5 -2 -8 -6 -8
-5 0 -9 -6 -9 -12 0 -7 -4 -26 -7 -43 -4 -16 -9 -39 -11 -50 -2 -11 -6 -33 -9
-50 -13 -61 -16 -81 -21 -120 -4 -22 -10 -65 -15 -95 -8 -46 -20 -152 -23
-197 0 -7 -3 -13 -6 -13 -3 0 -6 -19 -6 -42 -1 -38 -5 -100 -21 -298 -6 -73
-6 -279 0 -310 3 -14 7 -52 10 -85 7 -70 14 -128 21 -164 3 -14 7 -39 10 -56
3 -16 11 -48 17 -70 10 -39 13 -51 23 -96 6 -30 26 -92 34 -104 3 -5 6 -16 7
-23 4 -25 87 -192 96 -192 4 0 8 -6 8 -12 0 -19 131 -162 216 -237 82 -72 153
-106 155 -75 1 8 2 20 2 27 1 6 -6 35 -15 62 -9 28 -22 70 -29 95 -7 25 -13
47 -14 50 -7 24 -17 59 -19 71 -2 8 -6 21 -9 29 -6 17 -67 271 -74 310 -2 14
-8 41 -13 60 -5 19 -12 53 -16 75 -3 22 -9 44 -14 49 -5 5 -6 14 -4 21 3 6 0
32 -6 56 -6 24 -13 62 -15 84 -8 64 -16 119 -20 135 -2 8 -7 38 -10 65 -3 28
-7 66 -9 85 -28 227 -36 409 -41 970 -3 397 -6 485 -17 496 -2 2 -8 0 -14 -4z"/>
<path d="M6195 3269 c-4 -6 -9 -220 -11 -477 -3 -524 -8 -652 -30 -892 -11
-116 -23 -217 -34 -280 -5 -30 -12 -73 -15 -95 -4 -22 -10 -53 -14 -70 -4 -16
-7 -42 -7 -57 1 -16 -1 -28 -5 -28 -3 0 -6 -6 -7 -12 -4 -40 -10 -75 -16 -88
-3 -8 -8 -28 -10 -45 -2 -16 -6 -37 -8 -45 -5 -14 -21 -82 -33 -138 -7 -30
-11 -49 -24 -97 -17 -69 -33 -129 -36 -145 -2 -8 -17 -60 -35 -115 -39 -126
-40 -133 -34 -150 7 -17 37 -12 73 12 57 39 110 78 111 83 0 3 43 49 95 103
52 54 95 104 95 112 0 8 4 15 8 15 14 0 115 223 127 281 2 8 10 39 19 67 8 29
13 52 11 52 -3 0 0 11 5 24 5 13 12 43 15 67 4 24 8 46 10 49 2 4 6 31 9 61 3
30 8 65 10 79 10 54 18 189 17 270 -2 110 -15 313 -27 405 -3 22 -7 67 -9 100
-3 33 -7 71 -9 85 -3 14 -10 61 -16 105 -15 108 -17 120 -35 211 -23 114 -23
113 -45 200 -12 43 -22 86 -24 94 -8 33 -58 177 -78 222 -21 48 -31 57 -43 37z"/>
<path d="M5228 3163 c-9 -11 -12 -46 -11 -117 2 -115 13 -406 18 -481 12 -188
17 -264 20 -295 2 -19 7 -71 10 -115 3 -44 8 -98 10 -120 20 -185 25 -228 31
-260 2 -16 6 -46 8 -65 2 -19 4 -35 5 -35 2 0 4 -13 6 -30 5 -36 24 -124 32
-145 3 -8 7 -19 8 -25 25 -103 138 -375 156 -375 5 0 17 17 27 37 21 43 82
194 86 215 2 7 6 20 9 28 10 25 38 116 42 136 2 10 4 20 5 22 2 1 4 7 5 12 1
6 4 13 5 18 1 4 3 12 5 17 1 6 3 12 4 15 2 3 4 14 6 25 1 11 6 43 10 70 4 28
9 61 10 75 2 14 4 25 5 25 1 0 3 20 5 45 2 25 7 63 10 85 3 22 8 72 10 110 3
39 7 86 10 105 4 30 7 77 20 275 12 187 18 353 19 540 l1 220 -287 2 c-250 2
-288 0 -300 -14z"/>
</g>
</svg>
